if (_typeface_js && _typeface_js.loadFace) _typeface_js.loadFace({"glyphs":{"S":{"x_min":90.578125,"x_max":675.109375,"ha":761,"o":"m 397 -21 b 675 283 577 -21 675 119 b 615 472 675 374 650 429 b 396 587 566 533 490 556 b 240 670 356 599 280 630 b 198 791 206 706 198 752 b 363 954 198 862 242 954 b 511 894 427 954 475 934 b 596 740 567 834 585 780 b 604 735 597 735 600 734 l 620 740 b 627 751 626 741 627 744 b 608 972 626 781 608 923 b 597 995 608 984 604 995 b 579 987 590 995 586 992 l 562 970 b 536 969 555 963 548 962 b 375 1004 513 980 453 1004 b 185 937 302 1004 234 984 b 100 759 142 897 100 829 b 168 556 100 667 123 602 b 367 444 227 494 325 459 b 577 209 476 405 577 352 b 392 33 577 84 473 33 b 201 135 317 33 242 70 b 152 297 156 206 153 252 b 144 308 152 305 149 308 l 123 309 b 114 301 118 309 115 309 b 91 49 110 260 96 84 b 103 27 88 34 95 27 b 127 44 112 27 119 29 b 149 67 136 58 141 67 b 181 51 156 67 164 63 b 397 -21 235 8 302 -21 "},"/":{"x_min":-0.734375,"x_max":476.65625,"ha":486,"o":"m 2 22 b 4 4 -2 11 -1 6 l 50 -19 b 68 -8 55 -22 62 -20 l 475 969 b 469 988 477 977 477 986 l 426 1006 b 408 998 417 1009 412 1006 l 2 22 "},"‥":{"x_min":89.828125,"x_max":590.71875,"ha":694,"o":"m 174 -16 b 250 59 216 -16 250 13 b 174 143 250 111 213 143 b 89 65 106 143 89 88 b 174 -16 89 0 144 -16 m 514 -16 b 590 59 556 -16 590 13 b 514 143 590 111 553 143 b 430 65 446 143 430 88 b 514 -16 430 0 484 -16 "},"y":{"x_min":-10.953125,"x_max":626.546875,"ha":606,"o":"m 76 -377 b 192 -287 148 -377 172 -323 b 336 41 216 -241 269 -112 b 550 508 430 259 520 470 b 597 533 563 526 582 533 l 619 533 b 626 545 626 533 626 537 l 626 572 b 618 583 626 577 626 583 b 535 579 603 583 572 579 b 423 583 469 579 441 583 b 415 572 416 583 415 579 l 415 544 b 424 533 415 537 416 533 l 446 533 b 470 480 467 533 478 515 b 329 136 461 445 343 158 l 324 136 b 212 502 309 166 216 472 b 229 533 209 523 215 533 l 255 533 b 264 544 262 533 264 537 l 264 573 b 251 583 264 579 262 583 b 125 579 236 583 194 579 b 0 583 44 579 12 583 b -10 573 -9 583 -10 579 l -10 545 b 0 533 -10 537 -9 533 l 35 533 b 99 475 70 533 82 509 b 261 -22 110 445 254 12 b 152 -259 242 -76 172 -234 b 123 -268 144 -268 133 -269 b 61 -252 111 -265 87 -252 b -1 -306 28 -252 -1 -277 b 76 -377 -1 -348 24 -377 "},"g":{"x_min":18.71875,"x_max":662.734375,"ha":674,"o":"m 296 -377 b 529 -312 412 -377 493 -338 b 620 -141 597 -260 620 -206 b 553 -8 618 -108 612 -52 b 319 41 499 35 431 47 b 160 89 228 36 160 32 b 232 166 160 128 205 155 b 301 160 252 161 271 160 b 459 229 346 160 424 189 b 510 379 495 272 510 325 b 489 485 510 426 500 457 b 533 493 507 493 523 493 b 561 480 544 493 553 486 b 609 460 572 471 586 460 b 662 511 640 460 662 485 b 598 569 665 539 643 569 b 470 515 553 569 507 542 b 299 596 456 532 402 596 b 66 394 145 596 66 485 b 192 183 66 271 139 207 l 192 180 b 70 48 145 162 70 115 b 161 -48 70 7 104 -35 l 161 -53 b 18 -220 96 -83 18 -142 b 88 -333 18 -266 39 -302 b 296 -377 153 -370 231 -377 m 288 198 b 206 233 255 198 231 210 b 162 354 177 264 162 307 b 211 518 162 407 168 471 b 308 557 244 551 277 557 b 373 526 329 557 356 544 b 410 401 398 499 410 462 b 288 198 410 314 380 198 m 344 -333 b 153 -294 247 -333 198 -326 b 100 -198 126 -274 100 -233 b 209 -64 100 -123 167 -76 l 339 -55 b 537 -189 476 -45 537 -108 b 344 -333 544 -296 394 -333 "},"–":{"x_min":0,"x_max":680.5625,"ha":694,"o":"m 680 330 l 680 408 l 0 408 l 0 330 l 680 330 "},"e":{"x_min":50.359375,"x_max":544.515625,"ha":592,"o":"m 492 369 b 530 391 514 369 530 372 b 330 595 530 445 487 595 b 136 522 262 595 194 583 b 50 301 63 448 50 355 b 110 81 50 204 62 152 b 323 -16 160 6 246 -16 b 540 134 445 -16 515 79 b 540 155 547 150 544 154 l 522 165 b 510 158 518 166 513 163 b 345 63 487 112 428 63 b 152 302 236 63 152 166 b 156 369 152 334 153 356 l 492 369 m 161 411 b 304 554 187 513 245 554 b 409 430 393 554 409 462 b 372 411 409 418 398 411 l 161 411 "},"J":{"x_min":-104.8125,"x_max":430.109375,"ha":461,"o":"m 171 461 b 152 -143 171 359 186 -43 b 77 -230 137 -188 107 -220 b -28 -156 62 -187 17 -156 b -104 -223 -72 -156 -104 -181 b -12 -304 -104 -284 -36 -304 b 240 -115 91 -304 185 -213 b 291 116 281 -44 291 25 b 296 461 291 148 296 284 l 296 525 b 300 893 296 693 299 870 b 351 933 302 922 314 933 l 419 933 b 430 944 427 933 430 936 l 430 979 b 419 987 430 984 427 987 b 235 983 398 987 351 983 b 40 987 106 983 55 987 b 31 977 32 987 31 984 l 31 940 b 40 933 31 934 35 933 l 100 933 b 167 886 153 933 166 916 b 171 558 171 826 171 580 l 171 461 "},"ﬄ":{"x_min":34,"x_max":1113.375,"ha":1143,"o":"m 145 355 l 145 94 b 112 45 144 62 138 45 l 47 45 b 34 36 36 45 34 43 l 34 5 b 44 -4 34 -1 36 -4 b 200 0 55 -4 125 0 b 322 -4 264 0 314 -4 b 332 12 329 -4 332 1 l 332 34 b 317 45 332 43 329 45 l 280 45 b 244 81 251 45 247 58 b 243 388 243 97 243 225 l 243 512 l 524 512 l 524 355 l 524 94 b 491 45 522 62 517 45 l 446 45 b 432 36 435 45 432 43 l 432 5 b 443 -4 432 -1 435 -4 b 578 0 454 -4 524 0 b 721 -4 662 0 713 -4 b 730 12 728 -4 730 1 l 730 34 b 715 45 730 43 728 45 l 658 45 b 623 81 630 45 626 58 b 622 388 622 97 622 225 l 622 512 l 902 512 l 902 443 b 901 76 902 362 902 123 b 872 45 899 61 892 45 l 819 45 b 801 33 804 45 801 43 l 801 9 b 811 -4 801 1 804 -4 b 951 0 823 -4 862 0 b 1103 -4 1042 0 1095 -4 b 1113 9 1110 -4 1113 1 l 1113 33 b 1097 45 1113 41 1110 45 l 1033 45 b 1001 94 1014 45 1004 52 b 1000 413 1000 131 1000 341 l 1000 537 b 1003 944 1000 613 1000 902 b 990 973 1003 959 1004 966 b 841 1004 966 987 901 1004 b 622 898 766 1004 685 979 b 457 976 590 950 522 976 b 236 866 383 976 308 947 b 145 605 183 805 145 715 l 145 579 l 66 579 b 50 569 55 579 51 577 l 46 530 b 57 512 44 516 48 512 l 145 512 l 145 355 m 243 620 b 291 862 243 675 240 797 b 402 911 322 901 362 911 b 473 886 438 911 460 904 b 578 843 492 859 536 837 l 579 840 b 524 605 547 793 524 713 l 524 579 l 243 579 l 243 620 m 622 579 l 622 606 b 675 888 622 704 616 826 b 794 937 707 923 744 937 b 898 805 857 937 895 886 b 902 579 902 706 902 652 l 622 579 "},"^":{"x_min":31,"x_max":650,"ha":694,"o":"m 31 361 l 115 361 l 331 816 l 338 816 l 561 361 l 650 361 l 361 948 l 318 948 l 31 361 "},"D":{"x_min":39.46875,"x_max":1049.421875,"ha":1129,"o":"m 194 533 b 185 83 194 425 189 112 b 141 50 182 61 167 50 l 50 50 b 39 41 43 50 39 47 l 39 5 b 49 -4 39 -1 42 -4 b 240 0 68 -4 122 0 b 491 -4 302 0 405 -4 b 914 143 596 -4 784 -4 b 1049 508 1004 243 1049 348 b 898 862 1049 669 986 784 b 455 987 778 966 631 987 b 253 983 424 987 288 983 b 53 987 130 983 70 987 b 43 980 47 987 43 986 l 43 943 b 54 933 43 934 47 933 l 129 933 b 187 894 166 933 183 927 b 194 637 190 870 194 673 l 194 533 m 319 601 b 321 863 319 623 319 805 b 347 929 322 894 328 916 b 455 943 370 943 426 943 b 797 809 607 943 726 888 b 909 502 862 736 909 611 b 809 190 909 376 867 262 b 490 40 741 101 628 40 b 345 84 421 40 367 55 b 322 162 328 112 322 134 b 319 502 321 248 319 484 l 319 601 "},"ﬅ":{"x_min":34.03125,"x_max":812.828125,"ha":826,"o":"m 145 512 l 145 355 l 145 94 b 112 45 144 62 138 45 l 47 45 b 34 36 36 45 34 43 l 34 5 b 44 -4 34 -1 36 -4 b 200 0 55 -4 125 0 b 363 -4 304 0 355 -4 b 372 12 370 -4 372 1 l 372 34 b 357 45 372 43 370 45 l 280 45 b 245 81 251 45 247 58 b 243 388 243 97 243 225 l 243 579 l 243 606 b 295 886 243 704 240 825 b 420 937 334 929 385 937 b 499 902 447 937 473 925 b 515 620 521 883 515 708 b 431 548 487 587 449 559 b 406 523 415 538 406 534 b 427 506 406 512 415 506 l 510 506 b 507 330 509 448 507 355 l 507 300 b 503 101 507 280 503 158 b 635 -16 503 48 568 -16 b 786 38 717 -16 773 25 b 789 54 790 43 793 48 l 782 66 b 766 69 778 72 773 73 b 676 51 747 56 707 51 b 605 173 651 51 605 69 l 605 312 b 609 506 605 376 607 443 l 785 506 b 797 518 793 506 796 511 l 812 566 b 801 579 813 572 809 579 l 612 579 b 615 940 607 691 615 856 b 597 976 615 959 611 970 b 453 1004 575 986 529 1004 b 235 895 383 1004 302 976 b 145 605 183 833 145 743 l 145 579 l 66 579 b 50 569 55 579 51 577 l 46 527 b 54 512 44 518 47 512 l 145 512 "},"w":{"x_min":-19.203125,"x_max":959.390625,"ha":953,"o":"m 564 488 b 583 525 559 509 570 525 l 612 525 b 622 536 619 525 622 529 l 622 565 b 609 575 622 572 619 575 b 506 570 598 575 569 570 b 384 575 438 570 394 575 b 371 563 375 575 371 572 l 371 534 b 381 525 371 527 374 525 l 401 525 b 438 511 420 525 431 520 b 450 466 446 500 448 488 l 311 127 l 306 127 l 198 495 b 214 533 190 520 199 533 l 227 533 b 238 544 236 533 238 537 l 238 572 b 227 583 238 580 235 583 b 112 579 206 583 174 579 b -11 583 35 579 8 583 b -19 572 -17 583 -19 579 l -19 545 b -9 533 -19 537 -17 533 l 20 533 b 77 495 52 533 67 522 l 255 6 b 279 -20 261 -9 268 -20 b 307 1 289 -20 300 -15 l 475 401 l 482 401 l 615 5 b 639 -20 620 -11 630 -20 b 665 -2 650 -20 660 -18 b 872 509 683 41 856 483 b 915 533 880 522 899 533 l 949 533 b 959 544 956 533 959 537 l 959 573 b 949 583 959 579 956 583 b 850 579 933 583 909 579 b 745 583 794 579 753 583 b 736 573 740 583 736 580 l 736 544 b 744 533 736 537 737 533 l 763 533 b 783 456 790 533 801 505 l 673 151 l 668 151 l 564 488 "},"$":{"x_min":88.265625,"x_max":592.078125,"ha":694,"o":"m 394 -59 b 404 -45 402 -59 404 -56 l 405 28 b 592 273 518 52 592 164 b 417 511 592 407 524 479 l 428 820 b 457 795 438 812 446 805 b 514 669 492 761 507 706 b 522 665 515 665 518 665 l 541 669 b 548 679 545 670 548 673 b 544 869 547 706 544 827 b 533 889 544 876 544 889 b 514 881 526 889 522 888 l 500 867 b 476 866 494 862 487 861 b 427 883 466 870 450 877 l 430 964 b 420 981 430 977 427 981 l 393 981 b 383 967 386 981 383 980 l 382 891 b 310 894 360 895 333 896 l 311 967 b 302 981 311 977 308 981 l 274 981 b 265 967 268 981 265 979 l 262 887 b 182 839 240 880 209 864 b 98 675 140 802 98 751 b 161 505 98 600 121 545 b 251 451 190 476 230 458 l 242 97 b 185 155 227 105 205 123 b 148 291 148 215 149 254 b 140 301 148 298 145 301 l 119 302 b 110 293 114 302 110 298 b 88 79 106 261 93 109 b 100 61 87 66 92 61 b 123 75 108 61 115 61 b 144 94 130 87 136 94 b 172 79 149 94 157 90 b 240 39 197 59 224 44 l 238 -45 b 247 -59 238 -55 239 -59 l 274 -59 b 284 -47 283 -59 284 -55 l 287 28 b 360 22 303 23 345 21 l 359 -45 b 368 -59 359 -55 360 -59 l 394 -59 m 372 520 b 300 538 343 526 315 532 l 308 849 b 381 840 329 854 362 849 l 372 520 m 255 555 b 213 590 246 562 228 568 b 186 701 191 620 186 658 b 261 837 186 747 209 811 l 255 555 m 298 436 b 370 418 315 432 334 427 l 362 69 b 288 79 337 68 298 69 l 298 436 m 415 402 b 503 232 466 376 503 323 b 406 79 503 146 453 98 l 415 402 "},"\\":{"x_min":1.3125,"x_max":475.6875,"ha":486,"o":"m 470 0 b 473 16 475 1 477 5 l 70 1000 b 57 1006 68 1005 63 1009 l 5 984 b 2 970 1 983 0 977 l 404 -4 b 420 -20 411 -20 415 -22 l 470 0 "},"’":{"x_min":39.46875,"x_max":220.5,"ha":264,"o":"m 114 1004 b 46 944 70 1004 46 976 b 115 863 46 883 103 869 b 136 825 125 859 136 843 b 50 668 136 756 78 695 b 39 650 39 659 39 656 b 53 638 39 643 43 638 b 77 650 63 638 70 645 b 220 884 102 665 220 754 b 114 1004 220 962 156 1004 "},"-":{"x_min":70.78125,"x_max":479.109375,"ha":561,"o":"m 70 337 b 83 330 70 330 73 329 l 462 330 b 479 340 473 330 479 331 l 479 393 b 464 408 479 405 475 408 l 83 408 b 70 398 73 408 70 406 l 70 337 "},"Q":{"x_min":65.328125,"x_max":1546.21875,"ha":1132,"o":"m 547 1003 b 221 870 475 1006 326 967 b 65 507 122 777 65 641 b 197 141 65 341 123 217 b 472 -25 322 5 445 -15 b 994 -224 661 -115 858 -189 b 1358 -289 1233 -286 1317 -289 b 1540 -176 1434 -289 1523 -194 b 1544 -162 1546 -172 1547 -167 l 1535 -149 b 1523 -150 1531 -143 1527 -146 b 1438 -180 1506 -162 1476 -180 b 1015 -117 1412 -180 1359 -196 b 666 -15 921 -96 807 -68 l 666 -10 b 903 139 752 19 823 57 b 1043 505 985 221 1046 356 b 913 855 1046 630 1005 756 b 547 1003 828 945 706 1006 m 559 23 b 348 132 521 23 451 32 b 202 519 281 198 202 332 b 321 863 202 634 231 771 b 539 953 397 941 476 953 b 790 835 638 953 707 916 b 907 462 862 766 907 628 b 559 23 907 344 834 23 "},"M":{"x_min":10.890625,"x_max":1293.0625,"ha":1363,"o":"m 360 963 b 325 987 353 981 345 987 b 209 983 308 987 273 983 b 43 987 93 983 57 987 b 34 979 35 987 34 983 l 34 943 b 43 933 34 937 35 933 l 126 933 b 182 881 182 933 181 913 b 183 612 183 841 183 631 b 163 133 183 587 179 231 b 91 50 155 86 142 50 l 19 50 b 10 41 12 50 10 45 l 10 8 b 23 -4 10 -2 12 -4 b 198 0 35 -4 83 0 b 363 -4 311 0 348 -4 b 375 5 374 -4 375 0 l 375 40 b 366 50 375 45 374 50 l 298 50 b 235 151 254 50 242 72 b 232 509 231 200 232 493 b 240 897 232 526 235 877 b 409 505 259 880 383 569 b 594 40 416 488 590 50 b 615 15 600 26 607 15 b 642 48 626 15 637 36 b 807 431 647 61 798 415 b 1020 901 813 445 1007 883 l 1023 901 b 1027 550 1027 888 1027 641 l 1027 461 b 1024 100 1027 358 1026 116 b 986 50 1022 58 1009 50 l 894 50 b 883 40 884 50 883 47 l 883 8 b 894 -4 883 0 884 -4 b 1090 0 911 -4 965 0 b 1280 -4 1239 0 1264 -4 b 1293 8 1291 -4 1293 0 l 1293 40 b 1283 50 1293 45 1291 50 l 1203 50 b 1156 125 1169 50 1156 72 b 1152 447 1156 152 1152 377 l 1152 544 b 1156 876 1152 637 1156 836 b 1201 933 1156 908 1161 933 l 1261 933 b 1272 945 1271 933 1272 937 l 1272 977 b 1264 987 1272 983 1271 987 b 1022 983 1249 987 1203 983 b 990 966 1008 983 993 981 b 828 593 986 938 838 612 b 662 222 818 575 681 243 l 360 963 "},"C":{"x_min":65.328125,"x_max":962.96875,"ha":1036,"o":"m 555 -20 b 960 212 747 -20 879 91 b 958 225 965 219 962 222 l 940 238 b 929 234 936 243 933 241 b 593 58 867 144 747 58 b 332 175 502 58 424 69 b 201 531 225 294 201 451 b 541 955 200 734 298 955 b 778 848 649 955 721 908 b 884 676 835 788 865 722 b 898 665 888 665 891 663 l 918 670 b 924 684 924 672 925 677 b 890 954 917 723 890 927 b 875 976 890 973 887 976 b 857 968 862 976 860 976 l 846 927 b 819 927 843 918 837 916 b 544 1004 770 956 668 1004 b 204 863 396 1004 273 938 b 65 495 106 758 65 625 b 210 106 65 362 112 201 b 555 -20 292 30 394 -20 "},"!":{"x_min":92.5625,"x_max":254.53125,"ha":353,"o":"m 178 -16 b 254 59 219 -16 254 13 b 178 143 254 111 216 143 b 92 65 110 143 92 88 b 178 -16 92 0 148 -16 m 175 948 b 110 866 138 948 110 909 b 151 300 110 809 148 433 b 160 286 151 291 152 286 l 185 286 b 194 295 193 286 194 288 b 243 866 197 427 243 836 b 175 948 247 926 212 948 "},"ﬁ":{"x_min":34.03125,"x_max":720.03125,"ha":760,"o":"m 145 355 l 145 94 b 118 45 144 59 138 45 l 47 45 b 34 36 36 45 34 43 l 34 5 b 44 -4 34 -1 36 -4 b 200 0 55 -4 108 0 b 337 -4 288 0 329 -4 b 345 9 343 -4 345 1 l 345 34 b 332 45 345 43 343 45 l 270 45 b 246 81 249 45 246 62 b 243 388 243 97 243 225 l 243 512 l 409 512 b 524 408 506 512 524 490 l 524 200 l 524 77 b 502 45 522 52 515 45 l 447 45 b 434 34 438 45 434 43 l 434 6 b 445 -4 434 -1 438 -4 b 578 0 458 -4 498 0 b 709 -4 664 0 698 -4 b 720 8 717 -4 720 0 l 720 33 b 707 45 720 41 717 45 l 649 45 b 623 81 628 45 623 56 b 622 201 622 97 622 147 l 622 352 b 626 588 622 477 622 565 b 617 605 627 598 627 605 b 590 600 609 605 602 602 b 441 579 543 588 492 579 l 243 579 l 243 606 b 310 886 243 701 246 815 b 413 934 338 919 377 934 b 483 893 446 934 465 918 b 566 838 511 855 534 838 b 630 906 596 838 631 861 b 494 1004 630 956 568 1004 b 247 888 426 1004 321 972 b 145 602 189 823 145 740 l 145 579 l 66 579 b 50 569 55 579 51 577 l 44 526 b 54 512 43 518 47 512 l 145 512 l 145 355 "},"{":{"x_min":57.171875,"x_max":446.4375,"ha":492,"o":"m 57 412 b 74 388 57 400 65 390 b 123 373 92 387 107 384 b 167 258 157 351 167 302 b 144 126 167 218 155 173 b 119 -15 132 80 119 31 b 392 -238 119 -188 296 -234 b 436 -240 409 -240 428 -240 b 446 -220 443 -240 446 -233 b 436 -195 446 -205 445 -195 b 387 -190 428 -195 411 -195 b 225 -5 326 -175 225 -137 b 236 130 225 37 230 86 b 247 247 242 175 247 216 b 212 352 247 297 228 334 b 164 412 183 388 164 397 b 209 466 164 426 183 436 b 247 573 227 484 247 522 b 236 691 247 611 242 650 b 225 830 230 734 225 780 b 386 991 225 925 295 979 b 430 993 401 993 419 993 b 446 1018 442 993 446 1002 b 423 1037 446 1030 439 1037 b 359 1034 411 1037 387 1037 b 119 822 247 1026 119 956 b 144 677 119 772 132 725 b 167 540 155 630 167 586 b 122 447 167 497 151 456 b 74 438 106 441 92 438 b 57 412 65 438 57 429 "},"X":{"x_min":-31.34375,"x_max":963.59375,"ha":968,"o":"m 313 41 b 302 49 313 45 311 49 l 248 49 b 221 112 215 49 206 73 b 446 449 231 137 393 373 b 671 76 475 409 663 97 b 638 49 679 58 665 49 l 585 49 b 577 40 578 49 577 45 l 577 5 b 588 -4 577 0 578 -4 b 779 0 597 -4 671 0 b 952 -4 894 0 941 -4 b 963 6 962 -4 963 1 l 963 40 b 952 49 963 45 962 49 l 907 49 b 818 87 881 49 849 58 b 524 542 804 99 541 516 b 818 915 575 615 792 897 b 875 933 830 923 845 933 l 932 933 b 940 945 939 933 940 936 l 940 977 b 929 987 940 981 939 987 b 792 983 915 987 866 983 b 644 987 714 983 659 987 b 634 977 635 987 634 984 l 634 945 b 642 933 634 938 635 933 l 671 933 b 698 876 706 933 713 904 b 492 586 684 849 530 634 b 322 867 460 631 334 847 b 362 933 304 897 300 933 l 409 933 b 422 945 420 933 422 937 l 422 977 b 411 987 422 981 420 987 b 204 983 398 987 341 983 b 10 987 87 983 24 987 b 4 976 5 987 4 983 l 4 944 b 10 933 4 938 5 933 l 70 933 b 132 912 96 933 120 924 b 417 494 163 880 370 566 b 107 90 351 412 191 165 b 30 49 80 66 51 49 l -23 49 b -31 40 -29 49 -31 45 l -31 8 b -23 -4 -31 1 -29 -4 b 123 0 -10 -4 43 0 b 302 -4 234 0 288 -4 b 313 8 311 -4 313 0 l 313 41 "},"#":{"x_min":-11.484375,"x_max":693.21875,"ha":694,"o":"m 393 365 l 245 365 l 290 580 l 437 580 l 393 365 m 317 -5 b 322 -20 314 -15 314 -20 l 384 -20 b 397 -4 392 -20 394 -15 l 457 291 l 608 291 b 624 298 619 291 623 293 l 638 354 b 623 365 639 362 634 365 l 472 365 l 517 580 l 660 580 b 680 590 675 580 679 583 l 693 644 b 680 654 694 651 688 654 l 532 654 l 589 933 b 582 948 590 943 589 948 l 522 948 b 509 936 513 948 511 943 l 452 654 l 305 654 l 362 934 b 356 948 365 943 363 948 l 296 948 b 286 936 288 948 287 943 l 224 654 l 77 654 b 60 644 68 654 62 652 l 49 590 b 68 580 47 583 51 580 l 209 580 l 166 365 l 17 365 b 2 355 9 365 4 362 l -10 304 b -2 291 -13 295 -9 291 l 151 291 l 88 -1 b 94 -20 86 -15 86 -20 l 155 -20 b 169 1 163 -20 166 -15 l 230 291 l 378 291 l 317 -5 "},")":{"x_min":43.5625,"x_max":367.5,"ha":458,"o":"m 367 398 b 288 776 367 544 338 672 b 96 1027 231 897 152 973 b 70 1037 87 1034 77 1037 b 43 1018 58 1037 43 1025 b 54 991 43 1011 47 1000 b 274 398 185 855 274 669 b 55 -195 274 126 185 -58 b 43 -219 47 -204 43 -213 b 70 -240 43 -226 58 -240 b 96 -229 77 -240 87 -237 b 276 19 152 -176 227 -90 b 367 398 330 137 367 250 "},"}":{"x_min":35.390625,"x_max":424.671875,"ha":492,"o":"m 424 412 b 405 436 424 425 416 434 b 357 451 389 437 374 440 b 314 566 323 473 314 522 b 338 684 314 600 326 640 b 362 820 349 727 362 775 b 89 1036 362 979 185 1031 b 46 1037 72 1037 54 1037 b 35 1015 39 1037 35 1031 b 47 993 35 998 39 993 b 93 988 54 993 74 991 b 255 811 155 979 255 923 b 245 680 255 769 250 722 b 234 577 239 638 234 601 b 268 472 234 527 253 490 b 317 412 298 436 317 427 b 270 358 317 398 298 388 b 234 251 254 340 234 302 b 245 143 234 220 239 186 b 255 -5 250 101 255 52 b 95 -194 255 -113 186 -183 b 51 -195 80 -195 62 -195 b 35 -219 39 -195 35 -205 b 58 -240 35 -231 42 -240 b 121 -237 70 -240 93 -240 b 362 2 234 -227 362 -145 b 338 156 362 59 349 111 b 314 284 326 204 314 245 b 359 377 314 327 330 368 b 405 386 375 383 389 386 b 424 412 416 386 424 395 "},"‰":{"x_min":27.21875,"x_max":1470,"ha":1528,"o":"m 231 408 b 147 476 208 408 166 430 b 122 644 132 515 122 572 b 151 858 122 704 125 802 b 220 906 167 893 197 906 b 329 651 314 906 329 762 b 310 465 329 566 322 504 b 231 408 292 413 255 408 m 224 948 b 27 645 87 948 27 798 b 231 366 27 566 54 366 b 428 658 348 366 426 473 b 224 948 423 779 381 948 m 813 908 b 819 920 816 913 819 918 b 796 940 819 925 818 927 b 774 948 782 947 778 948 b 763 937 769 948 766 943 l 210 23 b 204 6 206 16 204 11 b 223 -9 204 1 206 0 b 247 -20 239 -19 243 -20 b 261 -2 251 -20 254 -15 l 813 908 m 796 29 b 711 97 773 29 730 51 b 687 265 696 136 687 193 b 715 479 687 325 690 423 b 785 527 732 513 762 527 b 894 272 879 527 894 383 b 875 86 894 187 887 125 b 796 29 857 34 820 29 m 789 569 b 592 266 651 569 592 419 b 796 -12 592 187 619 -12 b 993 279 913 -12 990 94 b 789 569 988 400 945 569 m 1272 29 b 1188 97 1249 29 1207 51 b 1163 265 1173 136 1163 193 b 1192 479 1163 325 1166 423 b 1261 527 1208 513 1238 527 b 1370 272 1355 527 1370 383 b 1351 86 1370 187 1363 125 b 1272 29 1333 34 1297 29 m 1265 569 b 1068 266 1128 569 1068 419 b 1272 -12 1068 187 1095 -12 b 1470 279 1389 -12 1467 94 b 1265 569 1464 400 1422 569 "},"a":{"x_min":59.25,"x_max":577.671875,"ha":593,"o":"m 458 247 l 458 459 b 428 558 458 497 456 529 b 319 595 409 576 383 595 b 153 547 257 595 210 581 b 59 416 97 513 59 461 b 91 372 59 384 70 372 b 164 451 147 372 164 402 b 170 515 164 476 151 497 b 259 544 189 533 232 544 b 341 513 298 544 326 531 b 360 436 355 495 357 459 l 360 347 b 206 266 338 327 267 294 b 70 98 98 218 70 162 b 151 -16 70 11 119 -16 b 232 -8 181 -16 206 -16 b 366 76 293 12 338 41 l 369 76 b 466 -16 381 19 417 -16 b 572 51 535 -16 561 30 b 573 76 580 65 577 72 l 560 87 b 546 81 554 91 551 88 b 498 61 539 72 520 61 b 458 165 474 61 458 86 l 458 247 m 358 134 b 247 48 358 97 286 48 b 176 125 206 48 176 73 b 358 305 176 240 309 268 l 358 134 "},"—":{"x_min":0,"x_max":1361.109375,"ha":1389,"o":"m 1361 408 l 0 408 l 0 330 l 1361 330 l 1361 408 "},"=":{"x_min":76.21875,"x_max":604.328125,"ha":694,"o":"m 76 481 l 76 404 l 604 404 l 604 481 l 76 481 m 76 272 l 76 194 l 604 194 l 604 272 l 76 272 "},"N":{"x_min":29.9375,"x_max":1026.28125,"ha":1104,"o":"m 183 566 b 178 134 183 319 181 161 b 117 50 171 66 156 50 l 70 50 b 62 41 63 50 62 45 l 62 5 b 69 -4 62 -1 63 -4 b 205 0 83 -4 176 0 b 337 -4 242 0 323 -4 b 348 6 347 -4 348 -1 l 348 37 b 337 50 348 45 347 50 l 296 50 b 246 130 259 50 251 76 b 232 513 243 158 232 384 l 232 822 l 240 822 b 514 476 249 811 499 490 b 717 219 522 468 622 340 b 883 5 801 111 882 8 b 916 -16 887 0 899 -16 b 922 16 921 -16 922 -2 l 922 536 b 928 856 922 626 922 763 b 981 933 931 909 944 933 l 1018 933 b 1026 943 1023 933 1026 937 l 1026 977 b 1015 987 1026 983 1024 987 b 883 983 997 987 965 983 b 733 987 796 983 752 987 b 725 979 728 987 725 984 l 725 943 b 733 933 725 936 728 933 l 777 933 b 852 879 815 933 841 913 b 868 665 860 855 867 719 b 872 404 871 595 872 527 l 872 238 l 867 238 b 589 590 834 283 604 570 b 303 968 574 609 310 959 b 264 986 292 980 281 986 b 172 983 247 986 219 983 b 76 986 126 983 96 984 b 38 987 55 986 44 987 b 29 979 31 987 29 984 l 29 943 b 38 933 29 938 31 933 l 93 931 b 183 802 142 930 183 884 l 183 566 "},"⁄":{"x_min":-258.609375,"x_max":310.328125,"ha":88,"o":"m 304 908 b 310 920 307 913 310 918 b 285 940 308 925 307 927 b 262 948 272 947 266 948 b 253 937 257 948 255 943 l -253 23 b -258 6 -255 16 -258 11 b -238 -9 -258 1 -255 0 b -213 -20 -221 -19 -217 -20 b -201 -2 -209 -20 -206 -15 l 304 908 "},"2":{"x_min":5.53125,"x_max":631.984375,"ha":694,"o":"m 428 0 b 503 -19 469 0 495 -1 b 520 -33 508 -31 508 -33 b 541 -18 545 -33 534 -33 l 629 198 b 618 218 635 206 629 212 b 594 211 605 225 601 223 b 436 94 564 159 529 94 l 160 94 b 420 337 220 148 327 229 b 589 695 542 477 589 577 b 350 948 589 852 465 948 b 78 740 167 948 100 794 b 78 720 73 727 74 723 l 97 712 b 114 719 104 708 108 709 b 296 854 137 761 180 852 b 471 658 394 855 467 781 b 304 311 476 537 413 430 b 11 23 195 191 75 84 b 7 2 5 16 3 12 b 22 -5 11 -5 16 -5 b 64 -2 28 -5 44 -4 b 133 0 85 -1 109 0 l 428 0 "},"Z":{"x_min":59,"x_max":942.109375,"ha":975,"o":"m 371 0 b 792 -15 501 0 717 -5 b 826 -20 810 -18 820 -20 b 844 -5 833 -20 841 -15 b 940 234 854 31 923 200 b 937 247 943 240 942 244 l 918 258 b 906 255 913 261 910 259 b 716 50 888 231 766 81 l 237 50 b 887 958 263 93 861 927 b 878 991 902 976 899 991 b 733 987 830 991 782 990 b 586 983 684 986 635 983 b 218 991 473 983 282 983 b 190 994 207 993 196 994 b 174 979 184 994 178 991 l 88 729 b 91 716 86 720 87 719 l 109 708 b 121 709 113 705 117 704 b 287 916 147 752 259 893 b 342 938 306 931 322 938 l 710 938 b 67 37 701 922 137 122 b 59 11 60 30 59 19 b 84 0 59 0 73 0 l 371 0 "},"u":{"x_min":20.328125,"x_max":671.296875,"ha":703,"o":"m 567 384 b 575 569 567 520 574 556 b 563 583 577 576 571 583 b 547 581 559 583 553 581 b 523 579 540 580 533 579 l 397 579 b 381 566 383 579 381 577 l 381 543 b 410 533 381 536 387 533 b 469 484 445 530 466 523 l 469 154 b 455 116 469 141 461 123 b 338 47 430 83 375 47 b 229 100 302 47 263 50 b 200 308 186 163 200 252 l 200 406 b 205 566 200 488 204 554 b 190 583 206 576 200 583 b 175 581 186 583 180 581 b 156 579 170 580 164 579 l 35 579 b 20 568 23 579 20 576 l 20 543 b 50 533 20 536 27 534 b 102 480 81 529 100 519 l 102 319 b 155 47 102 166 99 120 b 283 -16 200 -12 244 -16 b 468 80 351 -16 430 26 l 470 80 l 481 0 b 494 -16 483 -13 488 -16 b 521 -11 504 -16 513 -13 l 664 37 b 670 50 669 38 672 41 l 666 68 b 650 73 665 73 661 76 b 605 69 634 69 613 69 b 570 118 589 69 574 75 b 567 281 567 147 567 215 l 567 384 "},"k":{"x_min":38.625,"x_max":712.375,"ha":689,"o":"m 129 337 b 127 79 129 215 128 140 b 102 45 127 61 120 45 l 52 45 b 38 33 42 45 38 43 l 38 9 b 45 -4 38 1 41 -4 b 176 0 54 -4 102 0 b 297 -4 244 0 289 -4 b 308 11 305 -4 308 0 l 308 34 b 295 45 308 43 305 45 l 256 45 b 229 75 237 45 230 55 b 227 219 227 123 227 170 l 227 280 b 286 265 245 280 271 277 b 467 65 308 244 463 76 b 452 43 471 52 463 43 l 442 43 b 429 31 431 43 429 38 l 429 9 b 438 -4 429 0 431 -4 b 587 0 449 -4 506 0 b 700 -4 651 0 689 -4 b 712 8 709 -4 712 0 l 712 33 b 701 45 712 43 709 45 b 630 65 686 45 655 52 b 351 337 607 76 378 309 b 531 501 397 383 512 490 b 625 533 558 519 598 533 l 634 533 b 645 544 644 533 645 536 l 645 569 b 637 583 645 579 642 583 b 527 579 627 583 593 579 b 400 583 457 579 408 583 b 391 572 393 583 391 579 l 391 545 b 402 533 391 537 392 533 b 437 525 410 533 426 533 b 437 493 445 519 445 508 b 293 338 426 476 319 356 b 227 323 279 327 245 323 l 227 543 b 234 980 227 709 227 913 b 226 1004 235 997 234 1004 b 196 993 218 1004 208 998 l 57 931 b 39 918 44 926 39 923 l 39 905 b 59 895 39 901 44 900 b 129 797 125 877 129 854 l 129 337 "},"⅝":{"x_min":29.9375,"x_max":955.5,"ha":1031,"o":"m 774 -12 b 955 134 888 -12 955 69 b 830 290 955 215 895 258 b 954 445 918 337 954 383 b 796 569 954 516 886 569 b 600 411 668 569 600 486 b 722 262 600 338 661 294 b 605 106 653 226 605 179 b 774 -12 605 55 646 -12 m 779 27 b 677 120 729 27 677 63 b 759 241 677 169 702 216 b 876 118 827 209 876 177 b 779 27 876 75 843 27 m 782 526 b 879 433 842 526 879 484 b 792 309 879 376 838 331 b 686 429 720 351 686 373 b 782 526 686 479 718 526 m 785 908 b 790 920 788 913 790 918 b 767 940 790 925 789 927 b 745 948 754 947 749 948 b 735 937 740 948 737 943 l 182 23 b 175 6 178 16 175 11 b 194 -9 175 1 178 0 b 219 -20 210 -19 215 -20 b 232 -2 223 -20 225 -15 l 785 908 m 160 854 l 347 854 b 383 873 370 854 378 858 l 415 962 b 404 976 416 968 412 973 b 386 973 394 979 389 979 b 334 931 371 945 363 931 l 138 931 b 121 913 126 931 122 925 l 88 679 b 92 658 88 663 88 661 b 108 658 99 655 103 656 b 194 670 130 666 155 670 b 300 558 259 670 300 612 b 163 415 300 466 231 415 b 102 440 119 415 110 429 b 63 466 95 451 85 466 b 29 425 44 466 29 447 b 145 366 29 388 80 366 b 389 591 265 366 389 455 b 224 744 389 684 310 744 b 141 737 179 744 159 741 l 160 854 "},"s":{"x_min":56.921875,"x_max":432.828125,"ha":494,"o":"m 225 -16 b 432 166 341 -16 431 54 b 269 344 431 273 368 315 b 138 459 202 363 138 379 b 243 551 138 519 191 551 b 338 497 296 551 322 523 l 385 433 b 397 426 389 426 392 425 l 413 431 b 423 444 420 434 423 438 l 402 541 b 378 566 401 550 398 556 b 253 595 353 579 318 595 b 62 426 151 595 62 522 b 223 250 62 316 142 273 b 355 122 325 220 355 184 b 247 27 355 56 295 27 b 129 113 175 27 156 62 l 95 181 b 83 190 92 188 88 191 l 65 186 b 57 175 59 184 55 181 l 80 43 b 88 23 81 36 81 27 b 225 -16 104 11 159 -16 "},"B":{"x_min":42.1875,"x_max":811.21875,"ha":917,"o":"m 187 440 b 181 111 187 326 185 142 b 126 49 175 66 168 49 l 61 49 b 49 40 51 49 49 47 l 49 4 b 68 -4 49 -1 51 -4 b 242 0 93 -4 174 0 b 446 -4 299 0 352 -4 b 706 45 571 -4 649 9 b 811 254 769 86 811 183 b 590 529 811 401 722 484 l 586 531 b 752 761 692 588 752 623 b 647 949 752 842 725 906 b 406 987 600 977 513 987 b 234 983 359 987 277 983 b 53 987 136 983 74 987 b 42 977 44 987 42 984 l 42 942 b 53 933 42 936 44 933 l 95 933 b 183 849 157 933 179 930 b 187 604 185 824 187 655 l 187 440 m 307 502 l 351 502 b 533 479 413 502 477 501 b 669 261 613 447 669 373 b 450 40 669 95 564 40 b 307 224 337 40 307 97 l 307 416 l 307 502 m 307 652 b 310 916 307 767 308 888 b 329 941 310 929 318 938 b 374 942 340 944 355 942 b 560 895 443 942 511 930 b 627 749 611 858 627 802 b 551 583 627 688 607 626 b 379 547 518 559 457 547 b 307 549 356 547 333 547 l 307 652 "},"…":{"x_min":145.640625,"x_max":1216.828125,"ha":1389,"o":"m 230 -16 b 308 59 273 -16 308 13 b 230 143 308 111 270 143 b 145 65 163 143 145 88 b 230 -16 145 0 201 -16 m 1140 -16 b 1216 59 1181 -16 1216 13 b 1140 143 1216 111 1178 143 b 1053 65 1071 143 1053 88 b 1140 -16 1053 0 1110 -16 m 684 -16 b 762 59 728 -16 762 13 b 684 143 762 111 725 143 b 600 65 616 143 600 88 b 684 -16 600 0 654 -16 "},"?":{"x_min":70.78125,"x_max":455.96875,"ha":514,"o":"m 196 402 b 206 413 196 409 197 413 b 455 586 284 418 455 411 b 136 948 455 755 247 948 b 70 894 80 948 70 904 b 167 826 70 856 111 826 b 325 759 224 826 257 816 b 398 634 363 729 398 690 b 255 525 398 547 299 525 b 166 529 231 525 196 523 b 151 516 155 531 151 530 l 151 254 b 160 244 151 247 153 244 l 186 244 b 196 254 194 244 196 248 l 196 402 m 185 -16 b 262 56 232 -16 262 20 b 187 131 262 97 225 131 b 111 55 140 131 111 98 b 185 -16 111 13 145 -16 "},"H":{"x_min":47.640625,"x_max":1110.671875,"ha":1185,"o":"m 182 487 b 178 116 182 451 179 181 b 140 50 178 83 174 50 l 59 50 b 50 41 54 50 50 47 l 50 5 b 59 -4 50 -1 53 -4 b 249 0 91 -4 132 0 b 420 -4 347 0 394 -4 b 431 5 428 -4 431 -1 l 431 40 b 420 50 431 47 428 50 l 353 50 b 310 97 325 50 311 63 b 307 445 308 194 307 408 l 307 475 b 326 488 307 484 311 488 l 824 488 b 854 472 847 488 854 487 l 854 452 b 850 113 854 402 852 179 b 813 50 850 76 846 50 l 728 50 b 717 40 720 50 717 47 l 717 5 b 725 -4 717 0 720 -4 b 928 0 766 -4 809 0 b 1099 -4 1027 0 1073 -4 b 1110 6 1107 -4 1110 -1 l 1110 40 b 1098 50 1110 47 1107 50 l 1038 50 b 984 119 997 50 984 69 b 980 506 982 198 980 462 l 980 554 b 982 859 980 605 982 840 b 1026 933 982 909 986 933 l 1087 933 b 1098 943 1095 933 1098 934 l 1098 976 b 1087 987 1098 984 1097 987 b 913 983 1061 987 1005 983 b 733 987 820 983 762 987 b 725 979 726 987 725 984 l 725 943 b 735 933 725 936 728 933 l 805 933 b 850 862 845 933 850 906 b 854 573 850 845 854 652 l 854 559 b 827 538 854 541 847 538 l 323 538 b 307 550 311 538 307 543 l 307 573 b 310 854 307 651 310 834 b 363 933 310 909 317 933 l 432 933 b 443 944 441 933 443 936 l 443 980 b 430 987 443 986 439 987 b 249 983 404 987 355 983 b 58 987 129 983 85 987 b 47 977 51 987 47 984 l 47 944 b 55 933 47 936 49 933 l 119 933 b 179 843 170 933 179 913 b 182 547 179 820 182 633 l 182 487 "},"c":{"x_min":50.359375,"x_max":546.328125,"ha":571,"o":"m 310 551 b 401 490 343 551 371 547 b 476 434 421 452 445 434 b 526 483 504 434 525 451 b 341 595 526 512 483 595 b 50 269 161 595 50 431 b 111 80 50 206 61 148 b 322 -16 174 0 250 -16 b 541 81 415 -16 502 36 b 541 100 548 90 547 94 l 528 113 b 517 113 524 118 519 116 b 367 54 470 69 435 54 b 219 125 321 54 264 65 b 149 336 182 176 149 261 b 310 551 149 479 232 551 "},"⅜":{"x_min":12.25,"x_max":955.5,"ha":1031,"o":"m 774 -12 b 955 134 888 -12 955 69 b 830 290 955 215 895 258 b 954 445 918 337 954 383 b 796 569 954 516 886 569 b 600 411 668 569 600 486 b 722 262 600 338 661 294 b 605 106 653 226 605 179 b 774 -12 605 55 646 -12 m 779 27 b 677 120 729 27 677 63 b 759 241 677 169 702 216 b 876 118 827 209 876 177 b 779 27 876 75 843 27 m 782 526 b 879 433 842 526 879 484 b 792 309 879 376 838 331 b 686 429 720 351 686 373 b 782 526 686 479 718 526 m 785 908 b 790 920 788 913 790 918 b 767 940 790 925 789 927 b 745 948 754 947 749 948 b 735 937 740 948 737 943 l 182 23 b 175 6 178 16 175 11 b 194 -9 175 1 178 0 b 219 -20 210 -19 215 -20 b 232 -2 223 -20 225 -15 l 785 908 m 12 431 b 155 366 12 408 40 366 b 377 550 279 366 377 438 b 250 693 377 623 307 680 b 347 838 295 719 347 766 b 212 948 347 880 313 948 b 40 813 93 948 51 870 b 46 800 39 806 40 801 l 63 795 b 77 805 69 794 74 797 b 185 886 95 855 133 886 b 265 802 232 886 265 843 b 164 691 265 738 210 695 b 149 676 155 690 151 684 b 168 656 149 665 153 659 b 283 519 234 645 283 590 b 163 409 283 469 236 409 b 89 437 111 409 95 430 b 47 483 83 448 78 483 b 12 431 27 483 12 463 "},"•":{"x_min":69.421875,"x_max":393.359375,"ha":472,"o":"m 393 500 b 228 663 393 601 323 663 b 69 500 136 663 69 594 b 231 344 69 412 149 344 b 393 500 323 344 393 406 "},"(":{"x_min":81.671875,"x_max":405.609375,"ha":458,"o":"m 81 398 b 160 20 81 252 110 125 b 352 -229 217 -100 296 -176 b 378 -240 362 -237 371 -240 b 405 -219 390 -240 405 -226 b 394 -194 405 -212 401 -202 b 174 398 264 -58 174 127 b 393 993 174 670 264 855 b 405 1018 401 1001 405 1012 b 378 1037 405 1025 390 1037 b 352 1027 371 1037 362 1034 b 172 777 296 973 221 888 b 81 398 118 659 81 547 "},"U":{"x_min":10.890625,"x_max":1005.859375,"ha":1036,"o":"m 503 -20 b 759 62 622 -20 705 11 b 873 330 835 129 865 216 b 880 647 877 384 880 627 b 883 877 880 666 880 863 b 941 933 887 894 891 933 l 997 933 b 1005 947 1004 933 1005 938 l 1005 977 b 992 987 1005 981 1004 987 b 842 983 980 987 936 983 b 675 987 751 983 688 987 b 665 977 666 987 665 984 l 665 944 b 675 933 665 937 666 933 l 735 933 b 796 872 770 933 792 908 b 803 651 800 837 803 756 l 803 354 b 732 109 803 251 785 168 b 528 33 684 59 605 33 b 311 133 449 33 362 58 b 268 309 280 180 269 245 b 261 604 266 354 261 530 l 261 695 b 264 876 261 766 262 863 b 329 933 266 906 289 933 l 397 933 b 408 943 406 933 408 936 l 408 979 b 396 987 408 984 406 987 b 209 983 381 987 315 983 b 23 987 103 983 36 987 b 10 976 12 987 10 984 l 10 945 b 20 933 10 936 12 933 l 84 933 b 136 862 126 933 136 911 l 136 531 b 157 194 136 350 141 256 b 319 8 179 106 227 45 b 503 -20 364 -11 432 -20 "},"◊":{"x_min":79,"x_max":689,"ha":783,"o":"m 352 1012 l 79 468 l 351 -73 l 416 -73 l 689 468 l 416 1012 l 352 1012 m 386 927 l 608 469 l 386 11 l 382 11 l 157 470 l 382 927 l 386 927 "},"F":{"x_min":43.5625,"x_max":829.453125,"ha":831,"o":"m 190 522 b 185 80 190 283 187 108 b 137 50 183 55 172 50 l 76 50 b 66 43 70 50 66 48 l 66 5 b 74 -4 66 -1 69 -4 b 253 0 95 -4 147 0 b 438 -4 370 0 424 -4 b 449 6 446 -4 449 -1 l 449 41 b 436 50 449 47 445 50 l 370 50 b 317 94 323 50 317 56 b 315 390 317 115 315 348 l 315 441 b 500 433 337 441 436 441 b 556 379 530 429 547 412 b 571 311 560 363 570 322 b 581 301 573 304 574 300 l 607 306 b 616 318 613 308 616 311 b 609 462 613 345 609 412 b 612 620 609 481 609 597 b 604 630 612 626 609 630 l 577 631 b 567 622 571 631 568 627 b 553 554 563 597 558 568 b 494 493 541 511 524 498 b 315 486 477 490 334 486 l 315 555 b 317 937 315 640 317 919 b 608 925 357 937 574 933 b 703 859 647 915 680 891 b 790 731 743 805 778 754 b 801 722 794 723 797 720 l 826 731 b 828 741 828 733 830 736 b 774 988 819 777 778 965 b 251 983 752 981 274 983 b 108 986 186 983 140 984 b 53 987 77 986 61 987 b 43 979 47 987 43 984 l 43 941 b 53 933 43 936 47 933 l 132 933 b 187 893 168 933 187 919 b 190 619 187 876 190 680 l 190 522 "},":":{"x_min":92.5625,"x_max":253.171875,"ha":353,"o":"m 176 -16 b 253 59 219 -16 253 13 b 176 143 253 111 216 143 b 92 65 108 143 92 88 b 176 -16 92 0 147 -16 m 176 436 b 253 512 219 436 253 466 b 176 595 253 563 216 595 b 92 518 108 595 92 541 b 176 436 92 452 147 436 "},"*":{"x_min":22.65625,"x_max":425.921875,"ha":456,"o":"m 223 553 b 266 602 260 553 266 581 b 227 769 266 621 230 763 l 230 771 b 348 655 232 764 333 663 b 415 664 370 642 400 639 b 398 730 439 706 416 721 b 232 778 385 737 238 777 l 232 781 b 394 827 239 781 378 818 b 412 890 416 840 431 858 b 352 905 397 915 373 916 b 230 787 337 897 234 793 l 227 790 b 266 958 230 795 266 938 b 223 1004 266 987 257 1004 b 179 958 192 1004 179 983 b 219 791 179 943 218 795 l 216 788 b 94 901 213 794 110 893 b 28 887 73 912 45 918 b 49 827 12 858 31 836 b 215 781 64 820 208 783 l 215 778 b 53 728 207 778 68 738 b 32 664 42 721 12 699 b 98 653 47 639 75 639 b 216 769 111 662 201 755 l 219 769 b 179 602 217 763 179 617 b 223 553 179 577 192 553 "},"†":{"x_min":34.03125,"x_max":647.890625,"ha":694,"o":"m 355 -187 b 364 -175 363 -187 364 -183 b 419 419 366 -2 393 356 b 368 598 402 440 368 479 b 590 556 450 598 567 556 b 647 612 638 556 647 594 b 596 669 647 637 634 669 b 368 637 562 669 450 637 b 409 929 368 736 409 881 b 343 1004 409 970 387 1004 b 276 929 307 1004 276 970 b 311 637 276 881 311 736 b 98 669 230 637 122 669 b 34 612 55 669 34 643 b 92 556 34 591 46 556 b 311 598 122 556 232 598 b 261 419 311 479 276 437 b 317 -170 285 356 315 -13 b 326 -187 317 -181 318 -187 l 355 -187 "},"V":{"x_min":38.109375,"x_max":986.8125,"ha":981,"o":"m 38 943 b 44 933 38 937 39 933 l 80 933 b 136 887 108 933 122 919 b 250 545 153 845 217 644 l 264 498 b 435 4 281 448 392 131 b 458 -27 442 -13 447 -27 b 477 -9 465 -27 472 -20 b 676 491 484 4 660 445 b 843 879 699 550 808 834 b 940 933 869 911 895 933 l 977 933 b 986 943 985 933 986 937 l 986 977 b 977 987 986 984 985 987 b 831 983 965 987 931 983 b 671 987 745 983 683 987 b 662 977 664 987 662 984 l 662 945 b 669 933 662 937 664 933 l 705 933 b 748 901 739 933 748 918 b 729 822 748 881 740 856 b 643 563 709 761 657 601 b 498 180 632 531 526 245 l 495 180 b 368 556 464 265 385 504 b 285 850 344 634 294 800 b 280 897 281 869 280 886 b 337 933 280 920 299 933 l 402 933 b 413 945 412 933 413 938 l 413 977 b 400 987 413 983 412 987 b 212 983 387 987 326 983 b 47 987 106 983 61 987 b 38 977 39 987 38 984 l 38 943 "},"0":{"x_min":42.1875,"x_max":638.359375,"ha":694,"o":"m 347 -20 b 638 472 522 -20 638 154 b 345 948 638 683 545 948 b 42 416 171 948 42 734 b 347 -20 42 248 126 -20 m 348 29 b 206 147 300 29 249 55 b 160 440 176 211 160 308 b 215 815 160 555 166 718 b 337 898 246 877 284 898 b 521 502 453 898 521 706 b 479 127 521 300 509 194 b 348 29 442 45 390 29 "},"”":{"x_min":40.828125,"x_max":449.171875,"ha":500,"o":"m 115 1004 b 47 944 72 1004 47 976 b 117 863 47 883 104 869 b 137 825 126 859 137 843 b 51 668 137 756 80 695 b 40 650 40 659 40 656 b 54 638 40 643 44 638 b 78 650 65 638 72 645 b 221 884 103 665 221 754 b 115 1004 221 962 157 1004 m 341 1004 b 273 944 299 1004 273 976 b 343 863 273 883 332 869 b 363 825 352 859 363 843 b 277 668 363 756 307 695 b 266 650 266 659 266 656 b 280 638 266 643 270 638 b 306 650 291 638 299 645 b 449 884 330 665 449 754 b 341 1004 449 962 383 1004 "},"@":{"x_min":41.609375,"x_max":1014.8125,"ha":1092,"o":"m 361 351 b 635 738 361 470 522 738 b 692 665 670 738 692 704 b 655 556 692 641 679 605 b 394 306 633 511 477 306 b 361 351 372 306 361 323 m 743 90 b 485 33 666 40 572 33 b 142 387 290 31 142 162 b 637 954 142 656 360 954 b 931 648 821 954 931 852 b 708 298 931 411 782 298 b 669 326 684 298 669 306 b 726 518 669 370 708 477 b 825 752 734 537 806 719 b 818 766 828 758 829 766 l 767 766 b 753 756 761 766 758 765 l 735 730 b 652 779 726 750 705 779 b 266 325 494 779 266 509 b 335 244 266 270 301 244 b 620 458 439 244 565 380 l 625 455 b 577 290 588 361 577 309 b 628 244 577 266 602 244 b 1014 633 869 244 1014 452 b 652 1004 1014 859 889 1004 b 41 368 347 1004 41 697 b 464 -20 41 140 199 -20 b 761 55 591 -20 719 16 l 743 90 "},"i":{"x_min":35.390625,"x_max":336.1875,"ha":371,"o":"m 138 200 b 137 73 138 158 138 115 b 115 45 136 51 130 45 l 49 45 b 35 34 39 45 35 43 l 35 6 b 46 -4 35 -1 39 -4 b 193 0 61 -4 114 0 b 323 -4 250 0 313 -4 b 336 9 333 -4 336 0 l 336 33 b 322 45 336 41 333 45 l 259 45 b 238 81 245 45 240 55 b 236 201 236 97 236 147 l 236 352 b 239 579 236 468 236 555 b 232 595 240 588 239 595 b 206 587 224 595 217 593 b 59 519 155 558 103 536 b 50 509 53 516 50 513 l 50 497 b 62 487 50 491 53 488 b 138 404 130 476 138 451 l 138 200 m 152 755 b 231 831 206 755 231 795 b 160 900 231 862 208 900 b 77 827 106 900 77 862 b 152 755 77 783 122 755 "},"]":{"x_min":43.5625,"x_max":357.96875,"ha":492,"o":"m 343 -240 b 357 -225 353 -240 357 -234 l 357 1025 b 344 1037 357 1034 352 1037 l 65 1037 b 57 1029 59 1037 57 1033 l 57 995 b 68 984 57 988 59 984 l 253 984 b 265 969 261 984 265 981 l 265 -170 b 257 -187 265 -181 264 -187 l 54 -187 b 43 -200 43 -187 43 -191 l 43 -229 b 55 -240 43 -237 47 -240 l 343 -240 "},"⅓":{"x_min":21.28125,"x_max":940.53125,"ha":1031,"o":"m 790 908 b 796 921 793 914 796 918 b 773 940 796 925 794 928 b 751 948 759 947 755 948 b 740 937 745 948 743 943 l 187 23 b 181 7 183 16 181 11 b 200 -9 181 1 183 0 b 224 -20 216 -19 220 -20 b 238 -2 228 -20 231 -14 l 790 908 m 575 53 b 718 -12 575 29 604 -12 b 940 171 842 -12 940 60 b 813 314 940 244 871 301 b 910 460 858 340 910 387 b 775 569 910 501 876 569 b 604 435 657 569 615 491 b 609 421 602 428 604 422 l 627 416 b 641 426 632 415 638 418 b 748 507 658 476 696 507 b 828 423 796 507 828 464 b 728 312 828 360 774 316 b 713 297 718 311 714 305 b 732 278 713 286 717 280 b 846 140 797 266 846 211 b 726 30 846 90 800 30 b 653 58 675 30 658 51 b 611 104 646 69 642 104 b 575 53 590 104 575 85 m 247 691 b 250 936 247 798 250 923 b 239 948 250 943 247 948 b 215 939 232 948 227 946 l 27 835 b 21 826 21 832 20 829 l 36 798 b 50 800 38 796 42 796 l 103 822 b 138 830 118 828 130 830 b 159 797 153 830 157 816 b 161 680 160 765 161 700 l 161 639 b 160 469 161 591 160 480 b 98 423 159 430 156 423 l 58 423 b 46 418 51 423 46 422 l 46 382 b 55 375 46 378 49 375 b 198 379 59 375 163 379 b 340 375 238 379 334 375 b 349 382 345 375 349 376 l 349 415 b 341 423 349 421 347 423 l 310 423 b 247 472 253 423 247 430 l 247 691 "},"m":{"x_min":49,"x_max":1061.671875,"ha":1119,"o":"m 509 69 b 479 45 509 51 500 45 l 439 45 b 426 31 427 45 426 43 l 426 9 b 435 -4 426 0 428 -4 b 563 0 443 -4 490 0 b 684 -4 639 0 675 -4 b 694 11 691 -4 694 0 l 694 33 b 679 45 694 43 691 45 l 632 45 b 605 77 612 45 605 59 l 605 318 b 624 458 605 380 604 418 b 743 530 646 498 702 530 b 843 501 784 530 819 520 b 883 390 875 476 883 436 l 883 184 b 880 72 883 154 883 104 b 853 45 879 52 868 45 l 819 45 b 801 33 804 45 801 43 l 801 9 b 812 -4 801 0 804 -4 b 939 0 822 -4 871 0 b 1052 -4 1004 0 1042 -4 b 1061 9 1058 -4 1061 0 l 1061 33 b 1046 45 1061 43 1058 45 l 1009 45 b 981 73 993 45 981 52 l 981 383 b 916 554 981 490 947 520 b 793 595 883 587 841 595 b 593 488 711 595 634 543 l 586 488 b 432 595 558 554 503 595 b 232 490 353 595 273 547 l 228 490 l 223 570 b 210 590 223 580 219 590 b 185 581 205 590 196 587 l 65 519 b 57 508 62 518 57 512 l 57 497 b 66 486 57 493 59 490 l 95 470 b 133 400 127 452 133 427 l 133 152 b 132 80 133 129 133 104 b 111 45 130 54 123 45 l 65 45 b 49 33 51 45 49 44 l 49 8 b 59 -4 49 -1 51 -4 b 186 0 70 -4 114 0 b 310 -4 261 0 298 -4 b 321 11 319 -4 321 1 l 321 33 b 307 45 321 43 319 45 l 258 45 b 231 81 239 45 231 59 l 231 356 b 250 450 231 395 234 422 b 381 530 288 512 345 530 b 468 505 411 530 450 522 b 509 355 490 484 509 458 l 509 69 "},"ﬃ":{"x_min":34,"x_max":1098.390625,"ha":1146,"o":"m 145 355 l 145 94 b 112 45 144 62 138 45 l 47 45 b 34 36 36 45 34 43 l 34 5 b 44 -4 34 -1 36 -4 b 200 0 55 -4 125 0 b 322 -4 264 0 314 -4 b 332 12 329 -4 332 1 l 332 34 b 317 45 332 43 329 45 l 280 45 b 244 81 251 45 247 58 b 243 388 243 97 243 225 l 243 512 l 524 512 l 524 355 l 524 94 b 491 45 522 62 517 45 l 446 45 b 432 36 435 45 432 43 l 432 5 b 443 -4 432 -1 435 -4 b 568 0 454 -4 524 0 b 715 -4 666 0 707 -4 b 724 12 721 -4 724 1 l 724 34 b 710 45 724 43 721 45 l 649 45 b 624 81 627 45 624 62 b 622 388 622 97 622 225 l 622 512 l 788 512 b 902 400 884 512 902 490 l 902 200 l 902 77 b 880 45 901 52 894 45 l 826 45 b 812 34 816 45 812 43 l 812 6 b 823 -4 812 -1 816 -4 b 956 0 837 -4 876 0 b 1087 -4 1042 0 1076 -4 b 1098 9 1095 -4 1098 0 l 1098 33 b 1086 45 1098 41 1095 45 l 1027 45 b 1001 81 1007 45 1001 56 b 1000 201 1000 97 1000 147 l 1000 352 b 1004 588 1000 477 1000 565 b 996 605 1005 598 1005 605 b 969 600 988 605 981 602 b 819 579 921 588 871 579 l 622 579 l 622 606 b 688 888 622 704 624 818 b 792 937 717 922 755 937 b 861 895 824 937 843 920 b 944 841 890 858 913 841 b 1008 909 974 841 1009 863 b 872 1004 1008 959 947 1004 b 631 894 803 1004 696 975 b 457 976 594 950 525 976 b 236 866 383 976 308 947 b 145 605 183 805 145 715 l 145 579 l 66 579 b 50 569 55 579 51 577 l 44 527 b 54 512 43 518 47 512 l 145 512 l 145 355 m 243 620 b 291 862 243 675 240 797 b 402 911 322 901 362 911 b 473 886 438 911 460 904 b 582 837 492 858 534 834 l 583 834 b 524 605 548 788 524 713 l 524 579 l 243 579 l 243 620 "},"8":{"x_min":80.3125,"x_max":607.0625,"ha":694,"o":"m 338 -20 b 607 223 503 -20 607 115 b 415 473 607 350 524 420 b 602 769 559 576 602 637 b 371 948 602 861 496 948 b 80 681 178 948 80 802 b 266 444 80 575 164 502 b 89 177 151 368 89 297 b 338 -20 89 88 152 -20 m 347 26 b 175 200 268 26 175 79 b 311 418 175 287 224 368 b 509 195 419 359 509 308 b 347 26 509 80 445 26 m 349 891 b 513 720 443 891 517 822 b 370 502 507 627 436 545 b 186 715 250 575 186 615 b 349 891 186 812 253 891 "},"R":{"x_min":70.78125,"x_max":966.390625,"ha":968,"o":"m 189 497 b 186 97 189 365 189 234 b 133 50 186 59 163 50 l 77 50 b 70 38 70 50 70 45 l 70 6 b 81 -4 70 0 70 -4 b 251 0 96 -4 127 0 b 430 -4 381 0 415 -4 b 445 8 443 -4 445 -1 l 445 38 b 434 50 445 45 443 50 l 348 50 b 314 104 328 50 317 75 b 311 362 313 125 311 280 l 311 440 b 356 444 330 444 344 444 b 503 363 435 444 468 406 b 590 234 519 344 585 244 b 681 75 597 223 671 91 b 739 -4 694 56 724 9 b 849 0 759 -2 809 0 b 955 -4 909 0 944 -4 b 966 8 965 -4 966 0 l 966 38 b 955 50 966 44 965 50 b 857 73 917 50 886 52 b 737 233 831 93 744 219 b 613 411 726 251 630 393 b 551 463 602 426 583 451 l 551 466 b 803 744 725 505 803 570 b 732 902 803 795 777 858 b 477 987 680 952 590 987 b 250 983 453 987 326 983 b 81 987 136 983 93 987 b 73 977 74 987 73 984 l 73 943 b 81 933 73 937 74 933 l 136 933 b 187 863 170 933 186 909 b 189 631 189 823 189 734 l 189 497 m 311 887 b 328 931 311 909 318 925 b 374 943 340 940 357 943 b 600 879 487 943 547 922 b 668 720 639 845 668 784 b 372 488 668 662 620 488 b 311 494 347 488 332 490 l 311 887 "},"o":{"x_min":47.640625,"x_max":630.203125,"ha":692,"o":"m 329 -16 b 630 288 496 -16 630 137 b 537 515 630 379 598 451 b 347 595 496 556 421 595 b 164 529 302 595 235 584 b 47 305 84 465 47 376 b 122 79 47 206 59 155 b 329 -16 179 9 264 -16 m 345 25 b 210 97 281 25 242 51 b 159 291 167 161 159 213 b 231 509 159 397 178 454 b 336 554 264 545 299 554 b 515 302 405 554 515 456 b 345 25 515 154 449 25 "},"5":{"x_min":36.75,"x_max":607.640625,"ha":694,"o":"m 216 820 l 499 820 b 558 848 541 820 548 826 l 607 987 b 588 1004 609 995 602 997 b 571 997 579 1006 575 1005 b 488 927 548 951 536 927 l 197 927 b 175 905 179 927 176 922 l 126 513 b 133 498 125 505 126 501 b 157 495 142 493 149 494 b 334 465 193 498 261 498 b 454 252 423 426 454 350 b 242 38 454 130 348 38 b 134 65 201 38 155 52 b 66 93 114 77 91 93 b 36 56 49 93 36 76 b 213 -20 36 16 112 -20 b 556 323 398 -20 558 125 b 347 581 556 448 480 545 b 191 597 317 590 225 600 l 216 820 "},"7":{"x_min":61.234375,"x_max":661.03125,"ha":694,"o":"m 265 927 b 187 954 195 927 184 934 b 169 979 190 975 184 979 b 148 969 153 979 152 977 l 63 745 b 71 725 59 733 59 731 b 97 727 81 719 90 718 b 236 825 137 787 154 825 l 558 825 b 221 159 481 668 244 206 b 173 30 203 122 173 65 b 226 -20 173 0 192 -20 b 295 50 251 -20 278 -6 b 478 530 350 241 465 498 b 651 890 533 668 643 876 b 661 915 659 904 661 908 b 647 927 661 923 654 927 l 265 927 "},"K":{"x_min":76.15625,"x_max":982.671875,"ha":989,"o":"m 182 512 b 178 75 182 338 179 87 b 141 50 175 61 165 50 l 85 50 b 76 41 80 50 76 48 l 76 5 b 85 -4 76 -1 78 -4 b 249 0 97 -4 141 0 b 402 -4 345 0 386 -4 b 410 5 409 -4 410 0 l 410 41 b 400 50 410 47 406 50 l 340 50 b 308 80 322 50 310 62 b 304 373 307 100 304 304 l 304 473 l 330 473 b 390 452 351 473 368 470 b 661 86 408 438 649 113 b 639 48 668 72 665 48 l 619 48 b 611 40 613 48 611 45 l 611 4 b 619 -4 611 -1 613 -4 b 804 0 638 -4 691 0 b 971 -4 906 0 958 -4 b 982 5 979 -4 982 -1 l 982 40 b 973 50 982 45 979 50 l 925 50 b 830 84 892 50 853 55 b 465 545 817 100 477 530 b 782 906 523 623 732 869 b 857 933 807 925 838 933 l 886 933 b 896 943 892 933 896 936 l 896 980 b 887 987 896 984 894 987 b 783 983 871 987 823 983 b 649 987 721 983 665 987 b 641 977 643 987 641 984 l 641 945 b 647 936 641 938 642 936 l 666 936 b 679 902 684 936 691 922 b 385 534 666 884 415 556 b 329 515 366 520 351 515 l 304 515 l 304 584 b 308 890 304 652 308 869 b 347 933 308 923 319 933 l 404 933 b 413 943 410 933 413 936 l 413 979 b 402 987 413 984 410 987 b 249 983 385 987 340 983 b 89 987 146 983 106 987 b 78 979 81 987 78 984 l 78 943 b 89 933 78 936 81 933 l 137 933 b 178 900 171 933 178 915 b 182 593 178 888 182 618 l 182 512 "},",":{"x_min":72.140625,"x_max":274.9375,"ha":353,"o":"m 156 159 b 80 94 107 159 80 129 b 157 2 80 25 144 8 b 181 -38 168 -1 181 -20 b 84 -213 181 -115 117 -183 b 72 -234 73 -223 72 -226 b 88 -247 72 -243 77 -247 b 115 -234 98 -247 107 -238 b 274 26 142 -218 274 -119 b 156 159 274 113 204 159 "},"d":{"x_min":50.359375,"x_max":695.859375,"ha":724,"o":"m 494 575 b 348 596 453 587 404 596 b 145 508 272 596 198 566 b 50 272 81 443 50 358 b 136 46 50 179 66 116 b 296 -17 200 -19 251 -17 b 496 58 366 -17 453 13 l 514 -3 b 532 -14 517 -12 524 -17 l 686 38 b 695 53 694 41 696 45 l 692 65 b 665 74 690 71 684 73 b 605 98 646 76 617 84 b 592 224 594 112 592 173 l 592 532 b 597 979 592 708 593 909 b 590 1004 598 994 597 1004 b 559 1000 581 1004 571 1001 b 409 971 533 994 462 982 b 398 961 401 969 398 966 l 398 937 b 408 928 398 932 400 929 b 494 846 484 915 494 898 l 494 575 m 494 166 b 485 119 494 151 492 140 b 337 42 472 83 413 42 b 152 313 258 42 152 156 b 215 498 152 366 161 440 b 338 548 250 536 296 548 b 481 473 419 548 462 511 b 494 405 494 451 494 425 l 494 166 "},"E":{"x_min":62.609375,"x_max":898.40625,"ha":958,"o":"m 323 938 l 566 933 b 669 895 602 931 641 915 b 805 737 702 875 803 743 b 816 733 807 734 812 730 l 837 744 b 841 756 842 747 842 751 b 771 980 837 770 777 961 b 760 987 770 984 767 987 b 706 984 754 987 728 984 b 302 983 571 984 436 983 l 242 983 b 74 987 152 983 104 987 b 65 980 68 987 65 984 l 65 943 b 76 933 65 934 69 933 l 125 933 b 194 879 175 933 189 923 b 198 576 196 865 198 691 l 198 440 l 198 111 b 130 50 198 59 193 50 l 76 50 b 62 43 66 50 62 48 l 62 5 b 74 -4 62 -1 66 -4 b 133 -1 87 -4 104 -2 b 249 0 160 -1 198 0 b 675 -1 461 0 593 -1 b 793 -4 756 -2 786 -4 b 823 16 809 -4 819 4 l 895 220 b 892 240 899 231 899 236 l 871 252 b 854 244 862 256 858 251 b 743 98 835 212 759 112 b 624 50 707 68 647 52 b 504 45 596 47 528 45 b 404 55 470 45 431 50 b 326 163 362 63 328 91 b 323 401 326 191 323 326 l 323 487 b 503 480 345 487 439 487 b 562 426 539 476 553 455 b 577 361 566 411 574 379 b 588 348 578 351 581 347 l 617 352 b 626 363 623 354 626 356 b 617 508 623 393 617 459 b 622 666 617 529 617 643 b 613 677 623 672 620 677 l 579 679 b 570 669 574 679 570 676 b 559 601 568 643 563 615 b 496 540 547 558 536 547 b 323 531 480 537 334 531 l 323 938 "},"Y":{"x_min":-20.171875,"x_max":936.6875,"ha":924,"o":"m 502 440 b 825 902 554 516 797 876 b 891 933 848 925 871 933 l 925 933 b 936 945 935 933 936 937 l 936 979 b 925 987 936 984 935 987 b 803 983 913 987 883 983 b 642 987 712 983 656 987 b 633 979 634 987 633 984 l 633 945 b 642 933 633 937 634 933 l 679 933 b 724 879 736 933 729 902 b 478 484 718 854 528 565 b 265 887 437 563 269 865 b 306 933 260 920 265 933 l 351 933 b 360 945 359 933 360 938 l 360 980 b 351 987 360 984 359 987 b 148 983 337 987 288 983 b -10 987 65 983 1 987 b -20 979 -18 987 -20 984 l -20 943 b -10 933 -20 937 -18 933 l 23 933 b 94 900 45 933 76 920 b 377 423 133 851 359 459 l 377 343 b 373 84 377 213 374 104 b 325 50 371 63 360 50 l 258 50 b 249 40 250 50 249 45 l 249 6 b 257 -4 249 0 252 -4 b 437 0 272 -4 314 0 b 620 -4 551 0 604 -4 b 630 8 630 -4 630 0 l 630 40 b 620 50 630 45 630 50 l 567 50 b 507 98 532 50 512 54 b 502 258 506 113 502 204 l 502 440 "},"\"":{"x_min":80.3125,"x_max":424.671875,"ha":514,"o":"m 167 640 b 206 947 170 711 206 905 b 144 1004 206 984 185 1004 b 80 945 106 1004 80 984 b 121 640 80 905 118 711 l 167 640 m 383 640 b 424 947 386 711 424 905 b 360 1004 424 984 402 1004 b 298 945 323 1004 298 984 b 338 640 298 905 336 711 l 383 640 "},"‹":{"x_min":35.0625,"x_max":290.953125,"ha":353,"o":"m 251 69 b 261 63 255 66 258 63 b 266 66 262 63 265 65 l 286 86 b 290 93 289 88 290 90 b 286 102 290 95 289 98 l 161 294 l 285 484 b 290 494 288 487 290 491 b 286 501 290 497 289 498 l 267 520 b 261 525 265 523 263 525 b 252 519 258 525 255 522 l 41 304 b 35 294 37 300 35 297 b 40 286 35 291 37 288 l 251 69 "},"„":{"x_min":40.828125,"x_max":449.171875,"ha":500,"o":"m 115 155 b 47 97 72 155 47 127 b 117 15 47 34 104 20 b 137 -23 126 11 137 -5 b 51 -179 137 -90 80 -152 b 40 -197 40 -187 40 -190 b 54 -208 40 -204 44 -208 b 78 -197 65 -208 72 -201 b 221 36 103 -181 221 -94 b 115 155 221 113 157 155 m 341 155 b 273 97 299 155 273 127 b 343 15 273 34 332 20 b 363 -23 352 11 363 -5 b 277 -179 363 -90 307 -152 b 266 -197 266 -187 266 -190 b 280 -208 266 -204 270 -208 b 306 -197 291 -208 299 -201 b 449 36 330 -181 449 -94 b 341 155 449 113 383 155 "},"․":{"x_min":259.96875,"x_max":420.578125,"ha":694,"o":"m 344 -16 b 420 59 386 -16 420 13 b 344 143 420 111 383 143 b 259 65 276 143 259 88 b 344 -16 259 0 314 -16 "},"|":{"x_min":202.8125,"x_max":274.9375,"ha":486,"o":"m 268 -361 b 274 -347 273 -361 274 -354 l 274 1041 b 265 1058 274 1052 272 1058 l 210 1058 b 202 1045 204 1058 202 1054 l 202 -347 b 210 -361 202 -355 204 -361 l 268 -361 "},"b":{"x_min":2.71875,"x_max":632.921875,"ha":700,"o":"m 98 235 b 95 0 98 134 98 19 b 100 -11 93 -7 95 -10 l 117 -15 b 134 -11 125 -17 129 -15 l 189 18 b 349 -17 220 0 273 -17 b 632 297 504 -17 632 135 b 383 595 632 496 503 595 b 196 525 317 595 239 568 l 196 686 b 197 979 196 810 196 968 b 186 1003 198 996 196 1003 b 157 990 178 1003 167 997 b 13 914 123 968 53 932 b 2 903 5 910 2 907 l 2 892 b 20 881 2 888 5 885 l 34 877 b 98 747 83 860 98 840 l 98 235 m 196 478 b 325 528 225 510 274 528 b 528 265 458 528 528 400 b 345 27 528 84 427 27 b 216 96 287 27 230 63 b 196 297 200 140 196 182 l 196 478 "},"q":{"x_min":50.359375,"x_max":680.5625,"ha":706,"o":"m 589 266 b 593 471 589 371 590 441 b 604 563 594 486 598 541 b 604 584 608 577 607 581 l 592 593 b 579 595 588 598 585 596 l 507 564 b 345 595 449 584 401 595 b 166 528 284 595 221 578 b 50 274 92 466 50 353 b 294 -17 50 35 197 -17 b 488 49 393 -17 451 21 l 491 49 l 491 14 b 488 -303 491 -76 491 -282 b 455 -332 485 -322 479 -332 l 400 -332 b 385 -342 387 -332 385 -335 l 385 -369 b 396 -382 385 -379 387 -382 b 539 -378 406 -382 453 -378 b 671 -382 608 -378 658 -382 b 680 -371 677 -382 680 -379 l 680 -340 b 666 -332 680 -335 676 -332 l 624 -332 b 596 -292 605 -332 597 -317 b 589 -50 593 -254 589 -136 l 589 266 m 491 102 b 347 39 465 70 411 39 b 227 98 307 39 259 59 b 155 321 197 136 155 189 b 334 550 155 403 215 550 b 491 423 387 550 480 520 l 491 102 "},"z":{"x_min":16.015625,"x_max":606.609375,"ha":603,"o":"m 257 0 b 376 -3 267 0 322 0 b 499 -17 432 -4 474 -7 l 604 171 b 601 185 608 178 606 181 l 587 195 b 570 191 581 199 575 199 b 383 42 483 70 417 42 l 190 42 l 551 559 b 538 578 557 569 552 578 l 350 578 b 172 584 247 578 222 580 b 107 597 149 587 123 591 l 17 402 b 20 388 14 395 16 391 l 37 380 b 52 385 43 376 47 378 b 266 537 163 527 180 537 l 410 537 l 60 23 b 69 0 48 5 54 0 l 257 0 "},"ﬂ":{"x_min":34.03125,"x_max":735,"ha":757,"o":"m 145 355 l 145 88 b 115 45 144 59 138 45 l 47 45 b 34 36 36 45 34 43 l 34 5 b 44 -4 34 -1 36 -4 b 200 0 55 -4 103 0 b 343 -4 288 0 336 -4 b 352 12 349 -4 352 1 l 352 34 b 338 45 352 43 349 45 l 272 45 b 245 76 251 45 246 58 b 243 388 243 97 243 225 l 243 512 l 524 512 l 524 443 b 522 76 524 362 524 123 b 494 45 521 61 514 45 l 441 45 b 423 33 426 45 423 43 l 423 9 b 432 -4 423 1 426 -4 b 573 0 445 -4 484 0 b 725 -4 664 0 717 -4 b 735 9 732 -4 735 1 l 735 33 b 718 45 735 41 732 45 l 654 45 b 623 94 635 45 626 52 b 622 413 622 131 622 341 l 622 537 b 624 941 622 611 622 900 b 612 970 624 956 622 965 b 462 1004 588 984 522 1004 b 232 893 383 1004 295 973 b 145 602 182 829 145 740 l 145 579 l 66 579 b 50 569 55 579 51 577 l 44 526 b 54 512 43 518 47 512 l 145 512 l 145 355 m 243 606 b 296 886 243 701 238 823 b 416 934 329 920 366 934 b 519 809 479 934 517 893 b 524 579 524 704 524 650 l 243 579 l 243 606 "},"~":{"x_min":77.578125,"x_max":602.96875,"ha":694,"o":"m 530 429 b 464 318 530 348 498 318 b 378 359 432 318 402 344 l 321 398 b 212 431 281 423 251 431 b 77 237 141 431 77 359 l 149 237 b 212 348 149 320 187 348 b 302 318 243 348 268 340 l 355 280 b 468 234 393 255 426 234 b 602 429 539 234 602 306 l 530 429 "},"[":{"x_min":123.859375,"x_max":438.28125,"ha":492,"o":"m 137 1037 b 123 1025 129 1037 123 1034 l 123 -225 b 138 -240 123 -234 127 -240 l 426 -240 b 438 -229 434 -240 438 -237 l 438 -200 b 427 -187 438 -191 435 -187 l 225 -187 b 216 -168 217 -187 216 -183 l 216 969 b 230 984 216 981 220 984 l 413 984 b 424 995 421 984 424 988 l 424 1029 b 416 1037 424 1033 421 1037 l 137 1037 "},"L":{"x_min":53.078125,"x_max":878.734375,"ha":919,"o":"m 190 544 b 186 87 190 459 186 113 b 127 50 186 69 178 50 l 62 50 b 53 40 54 50 53 47 l 53 5 b 63 -4 53 -1 54 -4 b 117 -1 73 -4 89 -2 b 238 0 145 -1 185 0 b 566 -1 311 0 445 0 b 811 -4 687 -1 793 -2 b 877 272 819 33 873 262 b 875 284 879 280 879 281 l 853 293 b 842 287 847 295 845 293 b 661 54 823 233 741 66 b 319 54 619 48 349 51 b 315 434 315 111 315 411 l 315 554 b 319 879 315 651 319 861 b 367 933 319 919 325 933 l 449 933 b 462 944 460 933 462 937 l 462 976 b 450 987 462 983 461 987 b 249 983 438 987 381 983 b 72 987 136 983 87 987 b 62 977 63 987 62 984 l 62 947 b 72 933 62 940 63 933 l 136 933 b 186 883 176 933 183 919 b 190 622 187 858 190 711 l 190 544 "}," ":{"x_min":0,"x_max":0,"ha":353},"%":{"x_min":27.21875,"x_max":993.609375,"ha":1042,"o":"m 231 408 b 147 476 208 408 166 430 b 122 644 132 515 122 572 b 151 858 122 704 125 802 b 220 906 167 893 197 906 b 329 651 314 906 329 762 b 310 465 329 566 322 504 b 231 408 292 413 255 408 m 224 948 b 27 645 87 948 27 798 b 231 366 27 566 54 366 b 428 658 348 366 426 473 b 224 948 423 779 381 948 m 813 908 b 819 920 816 913 819 918 b 796 940 819 925 818 927 b 774 948 782 947 778 948 b 763 937 769 948 766 943 l 210 23 b 204 6 206 16 204 11 b 223 -9 204 1 206 0 b 247 -20 239 -19 243 -20 b 261 -2 251 -20 254 -15 l 813 908 m 796 29 b 711 97 773 29 730 51 b 687 265 696 136 687 193 b 715 479 687 325 690 423 b 785 527 732 513 762 527 b 894 272 879 527 894 383 b 875 86 894 187 887 125 b 796 29 857 34 820 29 m 789 569 b 592 266 651 569 592 419 b 796 -12 592 187 619 -12 b 993 279 913 -12 990 94 b 789 569 988 400 945 569 "},"P":{"x_min":42.1875,"x_max":800.328125,"ha":843,"o":"m 306 439 b 454 432 349 434 404 432 b 800 716 671 432 800 541 b 696 917 800 795 760 873 b 393 987 619 971 547 987 b 243 982 348 987 268 982 b 50 987 114 982 65 987 b 42 977 43 987 42 984 l 42 944 b 50 932 42 935 43 932 l 127 932 b 181 902 164 932 178 930 b 183 645 182 888 183 737 l 183 485 b 178 94 183 324 179 107 b 118 49 174 56 164 49 l 59 49 b 51 39 53 49 51 46 l 51 5 b 62 -4 51 0 53 -4 b 250 0 77 -4 130 0 b 439 -4 378 0 420 -4 b 451 6 450 -4 451 0 l 451 39 b 441 49 451 45 450 49 l 353 49 b 308 94 325 49 311 63 b 306 367 307 113 306 302 l 306 439 m 306 932 b 412 942 333 942 389 942 b 658 712 492 942 658 894 b 623 571 658 663 653 612 b 431 477 588 523 514 477 b 306 489 378 477 333 481 l 306 932 "},"_":{"x_min":0,"x_max":680.5625,"ha":694,"o":"m 0 -173 l 680 -173 l 680 -104 l 0 -104 l 0 -173 "},"+":{"x_min":76.21875,"x_max":604.328125,"ha":694,"o":"m 382 55 l 382 294 l 604 294 l 604 372 l 382 372 l 382 611 l 300 611 l 300 372 l 76 372 l 76 294 l 300 294 l 300 55 l 382 55 "},"‚":{"x_min":39.46875,"x_max":220.5,"ha":264,"o":"m 114 155 b 46 97 70 155 46 127 b 115 15 46 34 103 20 b 136 -23 125 11 136 -5 b 49 -179 136 -90 78 -152 b 39 -197 39 -187 39 -190 b 51 -208 39 -204 43 -208 b 77 -197 62 -208 70 -201 b 220 36 102 -181 220 -94 b 114 155 220 113 156 155 "},"⅞":{"x_min":77.125,"x_max":928.28125,"ha":1031,"o":"m 747 -12 b 928 134 861 -12 928 69 b 803 290 928 215 868 258 b 926 445 891 337 926 383 b 769 569 926 516 858 569 b 573 411 641 569 573 486 b 695 262 573 338 634 294 b 578 106 626 226 578 179 b 747 -12 578 55 619 -12 m 752 27 b 650 120 702 27 650 63 b 732 241 650 169 675 216 b 849 118 800 209 849 177 b 752 27 849 75 816 27 m 755 526 b 852 433 815 526 852 484 b 764 309 852 376 811 331 b 658 429 692 351 658 373 b 755 526 658 479 691 526 m 737 908 b 743 920 740 913 743 918 b 720 940 743 925 741 927 b 698 948 706 947 702 948 b 687 937 692 948 690 943 l 134 23 b 127 6 130 16 127 11 b 147 -9 127 1 130 0 b 171 -20 163 -19 167 -20 b 185 -2 175 -20 178 -15 l 737 908 m 208 931 b 157 947 163 931 156 936 b 147 962 159 959 156 962 b 130 952 136 962 133 958 l 77 813 b 85 800 76 809 77 804 b 104 804 93 795 98 794 b 189 859 130 838 147 859 l 390 859 b 174 475 341 776 189 505 b 144 397 163 452 144 418 b 178 366 144 379 157 366 b 235 409 208 366 225 375 b 355 693 268 526 347 675 b 468 909 390 776 462 901 b 473 925 473 916 473 920 b 465 931 473 929 469 931 l 208 931 "},"'":{"x_min":77.578125,"x_max":204.171875,"ha":286,"o":"m 164 640 b 204 947 167 711 204 905 b 141 1004 204 984 182 1004 b 77 945 103 1004 77 984 b 118 640 77 905 115 711 l 164 640 "},"ﬆ":{"x_min":56.921875,"x_max":920.953125,"ha":938,"o":"m 894 506 b 906 518 902 506 905 511 l 920 566 b 910 579 922 572 918 579 l 721 579 l 732 716 b 451 955 743 858 650 955 b 166 744 268 955 166 861 b 257 598 166 687 196 637 l 257 595 b 62 426 151 595 62 522 b 223 250 62 316 142 273 b 355 122 325 220 355 184 b 247 27 355 56 295 27 b 129 113 175 27 156 62 l 95 181 b 83 190 92 188 88 191 l 65 186 b 57 175 59 184 55 181 l 80 43 b 88 23 81 36 81 27 b 225 -16 104 11 159 -16 b 432 166 341 -16 431 54 b 269 344 431 273 368 315 b 138 459 202 363 138 379 b 243 551 138 519 191 551 b 338 497 296 551 322 523 l 385 433 b 397 426 389 426 392 425 l 413 431 b 423 444 420 434 423 438 l 402 541 b 378 566 401 550 398 556 b 315 591 360 575 334 583 b 236 741 269 627 236 680 b 454 904 236 851 334 904 b 653 704 574 904 654 843 b 540 544 651 625 609 568 b 515 523 524 538 515 534 b 536 506 515 512 524 506 l 619 506 b 616 330 617 448 616 355 l 616 300 b 612 101 616 280 612 158 b 744 -16 612 48 677 -16 b 895 38 826 -16 882 25 b 898 54 899 43 902 48 l 891 66 b 875 69 887 72 882 73 b 785 51 856 56 816 51 b 714 173 760 51 714 69 l 714 312 b 718 506 714 376 715 443 l 894 506 "},"ﬀ":{"x_min":34,"x_max":962.28125,"ha":817,"o":"m 145 355 l 145 94 b 112 45 144 62 138 45 l 47 45 b 34 36 36 45 34 43 l 34 5 b 44 -4 34 -1 36 -4 b 200 0 55 -4 125 0 b 322 -4 264 0 314 -4 b 332 12 329 -4 332 1 l 332 34 b 317 45 332 43 329 45 l 280 45 b 244 81 251 45 247 58 b 243 388 243 97 243 225 l 243 512 l 524 512 l 524 355 l 524 94 b 491 45 522 62 517 45 l 446 45 b 432 36 435 45 432 43 l 432 5 b 443 -4 432 -1 435 -4 b 571 0 454 -4 524 0 b 741 -4 683 0 733 -4 b 751 12 748 -4 751 1 l 751 34 b 736 45 751 43 748 45 l 658 45 b 623 81 630 45 626 58 b 622 388 622 97 622 225 l 622 512 l 771 512 b 789 519 782 512 788 513 l 796 565 b 786 579 797 570 796 579 l 622 579 l 622 606 b 669 890 622 704 619 825 b 771 938 699 929 736 938 b 834 906 797 938 816 929 b 867 875 839 900 854 881 b 905 866 877 869 891 866 b 962 926 926 866 962 893 b 838 1004 962 979 902 1004 b 620 900 767 1004 691 979 b 457 976 589 950 524 976 b 236 866 383 976 308 947 b 145 605 183 805 145 715 l 145 579 l 66 579 b 50 569 55 579 51 577 l 44 527 b 54 512 43 519 47 512 l 145 512 l 145 355 m 243 620 b 291 862 243 675 240 797 b 402 911 322 901 362 911 b 473 886 438 911 460 904 b 578 841 492 861 536 836 l 579 838 b 524 605 547 793 524 713 l 524 579 l 243 579 l 243 620 "},"T":{"x_min":-10.40625,"x_max":940.875,"ha":975,"o":"m 404 576 b 400 83 404 550 404 123 b 355 50 398 66 382 50 l 262 50 b 253 36 254 50 253 45 l 253 9 b 265 -4 253 1 254 -4 b 472 0 284 -4 341 0 b 662 -4 605 0 649 -4 b 676 6 675 -4 676 0 l 676 36 b 662 50 676 45 675 50 l 577 50 b 530 105 544 50 533 70 b 529 537 529 129 529 518 l 529 933 l 567 933 b 803 909 634 933 762 930 b 899 754 847 887 888 780 b 910 744 903 744 905 743 l 932 750 b 940 761 939 751 941 754 b 901 1011 929 822 903 994 b 888 1033 898 1029 895 1033 b 872 1027 883 1033 879 1031 l 846 1011 b 775 991 823 997 805 993 b 502 983 709 988 650 983 l 436 983 b 179 991 308 983 251 988 b 102 1015 140 993 126 997 l 84 1027 b 68 1033 78 1031 74 1033 b 54 1011 62 1033 57 1029 b -9 766 51 995 4 816 b -4 755 -12 758 -8 756 l 20 748 b 34 755 27 747 31 748 b 155 916 53 800 93 897 b 370 933 208 933 326 933 l 404 933 l 404 576 "},"j":{"x_min":-100.640625,"x_max":241,"ha":342,"o":"m 132 102 b 125 -194 132 4 130 -113 b 57 -316 118 -279 91 -316 b 25 -295 49 -316 39 -311 b -51 -252 1 -268 -21 -252 b -100 -311 -80 -252 -100 -288 b -21 -376 -100 -351 -62 -376 b 211 -143 83 -376 181 -301 b 230 163 226 -66 230 81 l 230 337 b 235 573 230 463 232 561 b 227 597 238 587 234 597 b 201 587 219 597 212 595 b 54 513 153 555 98 527 b 43 502 47 509 43 506 l 43 490 b 51 480 43 486 45 483 l 65 475 b 132 377 121 452 132 438 l 132 102 m 155 756 b 241 837 206 756 241 798 b 164 923 241 898 194 923 b 73 841 106 923 73 870 b 155 756 73 781 121 756 "},"1":{"x_min":99.484375,"x_max":574.390625,"ha":694,"o":"m 307 451 b 306 127 307 426 307 145 b 212 50 303 54 300 50 l 149 50 b 130 41 138 50 130 48 l 130 6 b 141 -4 130 -1 134 -4 b 352 0 148 -4 340 0 b 562 -4 364 0 549 -4 b 574 6 571 -4 574 -1 l 574 38 b 560 50 574 45 570 50 l 511 50 b 416 131 423 50 417 59 b 415 461 416 150 415 444 l 415 519 b 419 929 415 698 419 916 b 409 948 419 940 417 948 b 390 940 402 948 397 944 l 108 775 b 100 758 99 769 98 763 l 111 733 b 125 729 114 727 119 727 l 220 761 b 274 772 242 768 262 772 b 307 694 300 772 306 741 b 307 501 308 584 307 519 l 307 451 "},"›":{"x_min":54.046875,"x_max":309.9375,"ha":353,"o":"m 303 284 b 309 294 307 288 309 291 b 304 302 309 297 307 300 l 92 518 b 82 525 88 522 85 525 b 77 522 81 525 78 523 l 58 501 b 54 494 55 498 54 497 b 58 484 54 491 55 488 l 183 294 l 59 102 b 54 93 56 100 54 95 b 58 86 54 90 55 88 l 75 68 b 82 63 78 65 79 63 b 90 69 85 63 88 66 l 303 284 "},"<":{"x_min":114.328125,"x_max":537.640625,"ha":694,"o":"m 537 56 l 537 150 l 236 335 l 236 342 l 537 520 l 537 612 l 114 357 l 114 313 l 537 56 "},"t":{"x_min":31.3125,"x_max":436.390625,"ha":443,"o":"m 230 312 b 234 506 230 376 231 443 l 409 506 b 421 518 417 506 420 511 l 435 566 b 426 579 438 572 434 579 l 236 579 l 243 716 b 230 737 243 727 240 737 b 210 723 221 737 215 734 b 55 548 193 676 88 568 b 31 523 39 538 31 534 b 51 506 31 512 39 506 l 134 506 b 132 330 133 448 132 355 l 132 300 b 127 101 132 280 127 158 b 259 -16 127 48 193 -16 b 411 38 341 -16 397 25 b 413 54 415 43 417 48 l 406 66 b 390 69 402 72 397 73 b 300 51 371 56 332 51 b 230 173 276 51 230 69 l 230 312 "},"W":{"x_min":-22.9375,"x_max":1445.84375,"ha":1451,"o":"m 238 883 b 277 933 230 913 242 933 l 301 933 b 311 944 310 933 311 937 l 311 979 b 301 987 311 983 310 987 b 133 983 287 987 231 983 b -12 987 41 983 -1 987 b -22 977 -21 987 -22 984 l -22 944 b -14 933 -22 938 -21 933 l 31 933 b 90 883 57 933 76 922 l 393 -5 b 418 -27 399 -22 407 -27 b 445 -1 430 -27 438 -15 b 713 765 453 13 701 727 l 716 765 l 968 2 b 998 -27 974 -16 981 -27 b 1026 8 1013 -27 1019 -6 b 1349 895 1053 75 1338 876 b 1403 933 1361 918 1380 933 l 1436 933 b 1445 943 1445 933 1445 937 l 1445 977 b 1436 987 1445 984 1444 987 b 1309 983 1425 987 1385 983 b 1164 987 1225 983 1177 987 b 1153 977 1154 987 1153 983 l 1153 945 b 1162 933 1153 937 1154 933 l 1199 933 b 1247 890 1236 933 1247 912 b 1034 180 1247 811 1049 225 l 1032 180 l 819 877 b 857 933 811 902 823 933 l 912 933 b 921 943 920 933 921 937 l 921 977 b 912 987 921 983 920 987 b 732 983 898 987 846 983 b 566 987 626 983 578 987 b 556 977 558 987 556 983 l 556 944 b 565 933 556 936 558 933 l 599 933 b 653 906 623 933 641 923 b 674 855 665 890 675 866 b 460 180 668 797 465 204 l 457 180 l 238 883 "},">":{"x_min":142.921875,"x_max":566.21875,"ha":694,"o":"m 142 612 l 142 517 l 443 332 l 443 325 l 142 147 l 142 56 l 566 310 l 566 354 l 142 612 "},"v":{"x_min":-15.234375,"x_max":619.046875,"ha":601,"o":"m 232 343 b 188 506 224 366 188 481 b 213 533 188 525 199 533 l 240 533 b 250 547 248 533 250 538 l 250 572 b 236 583 250 580 247 583 b 114 579 221 583 186 579 b 0 583 37 579 14 583 b -15 572 -12 583 -15 581 l -15 547 b -7 533 -15 538 -13 533 l 20 533 b 75 481 44 533 58 522 b 145 290 85 459 141 301 b 251 8 149 279 248 15 b 280 -20 258 -8 266 -20 b 312 11 295 -20 301 -8 b 435 295 318 20 418 254 b 544 518 455 347 523 498 b 586 533 556 530 570 533 l 612 533 b 619 547 619 533 619 537 l 619 570 b 606 583 619 581 617 583 b 508 579 594 583 561 579 b 399 583 448 579 418 583 b 391 572 394 583 391 580 l 391 547 b 397 533 391 540 393 533 l 424 533 b 448 473 448 533 458 511 b 318 127 435 419 340 181 l 314 127 b 232 343 299 156 240 316 "},"&":{"x_min":49,"x_max":1221.59375,"ha":1146,"o":"m 966 -20 b 1219 154 1124 -20 1199 109 b 1219 167 1222 161 1222 166 l 1199 179 b 1188 178 1193 184 1190 182 b 1038 70 1182 167 1121 70 b 854 174 951 70 888 138 b 751 291 835 192 771 267 b 939 556 788 329 929 541 b 1042 596 960 591 974 596 l 1065 596 b 1075 606 1073 596 1075 600 l 1075 635 b 1065 645 1075 641 1073 645 b 925 641 1057 645 975 641 b 793 645 879 641 805 645 b 784 638 785 645 784 642 l 784 607 b 793 597 784 602 785 597 l 816 597 b 858 554 845 597 861 577 b 724 328 854 514 767 384 b 436 599 654 429 532 547 b 586 791 495 629 583 718 b 396 984 589 884 498 984 b 175 746 315 984 175 856 b 317 572 175 696 223 628 b 159 459 261 541 205 504 b 49 224 104 406 49 324 b 334 -20 49 64 204 -20 b 673 200 509 -20 607 117 b 966 -20 732 124 819 -20 m 386 63 b 160 271 281 63 163 156 b 344 543 157 385 245 488 b 643 232 472 470 581 322 b 386 63 608 191 519 63 m 396 934 b 506 795 464 934 506 842 b 408 620 506 688 442 646 b 269 772 344 660 269 721 b 396 934 269 853 329 934 "},"I":{"x_min":27.21875,"x_max":450.53125,"ha":515,"o":"m 190 484 b 183 90 190 411 186 111 b 122 50 178 54 149 50 l 46 50 b 35 41 39 50 35 47 l 35 4 b 46 -4 35 -1 39 -4 b 249 0 61 -4 119 0 b 438 -4 367 0 421 -4 b 450 4 446 -4 450 -1 l 450 40 b 439 50 450 47 446 50 l 383 50 b 319 100 340 50 319 56 b 315 450 319 115 315 436 l 315 556 b 319 894 315 573 319 880 b 367 933 319 922 340 933 l 431 933 b 442 943 438 933 442 936 l 442 977 b 432 987 442 983 439 987 b 249 983 413 987 370 983 b 36 987 122 983 53 987 b 27 979 31 987 27 984 l 27 941 b 38 933 27 936 31 933 l 117 933 b 185 886 168 933 182 919 b 190 581 186 865 190 615 l 190 484 "},"G":{"x_min":65.328125,"x_max":1064.390625,"ha":1136,"o":"m 834 204 b 797 81 834 131 828 101 b 574 34 749 54 683 34 b 334 133 485 34 402 66 b 205 522 250 215 205 358 b 325 841 205 647 251 762 b 585 954 406 930 491 954 b 833 840 707 954 792 891 b 914 676 880 780 903 715 b 925 665 916 669 920 665 l 950 668 b 956 680 955 668 956 673 l 952 945 b 940 962 952 955 950 962 b 921 950 932 962 926 955 l 901 925 b 869 923 892 913 884 911 b 601 1004 823 959 718 1004 b 219 872 438 1004 315 956 b 65 519 118 780 65 645 b 190 137 65 351 107 233 b 571 -20 284 25 450 -20 b 943 68 724 -20 833 11 b 965 90 956 73 965 79 b 959 134 965 101 959 115 l 959 318 b 1001 370 959 361 977 370 l 1054 370 b 1064 381 1063 370 1064 376 l 1064 415 b 1053 425 1064 420 1063 425 b 892 420 1034 425 990 420 b 720 425 800 420 739 425 b 711 413 713 425 711 422 l 711 379 b 721 370 711 373 714 370 l 778 370 b 834 306 819 370 834 356 l 834 204 "},"`":{"x_min":40.953125,"x_max":274.46875,"ha":464,"o":"m 272 690 b 273 697 274 691 274 694 l 142 862 b 87 897 130 877 114 897 b 68 805 47 897 16 843 l 247 675 b 255 675 250 672 253 672 l 272 690 "},"r":{"x_min":32.671875,"x_max":465.5,"ha":474,"o":"m 132 238 b 130 72 132 166 132 118 b 100 45 130 54 121 45 l 47 45 b 32 33 35 45 32 43 l 32 9 b 40 -4 32 -1 35 -4 b 190 0 49 -4 106 0 b 334 -4 264 0 326 -4 b 341 8 340 -4 341 0 l 341 33 b 332 45 341 41 340 45 l 268 45 b 230 102 239 45 230 59 l 230 394 b 243 438 230 398 235 423 b 323 497 266 483 302 497 b 368 486 341 497 357 493 b 408 475 379 480 393 475 b 465 543 432 475 465 502 b 396 604 465 575 442 604 b 232 483 337 604 273 547 l 227 483 l 220 579 b 210 595 220 587 219 595 b 191 590 205 595 200 594 l 57 519 b 46 506 49 515 46 512 l 46 498 b 57 488 46 493 49 491 l 83 475 b 132 369 121 454 132 440 l 132 238 "},"‒":{"x_min":54.4375,"x_max":626.109375,"ha":694,"o":"m 626 330 l 626 408 l 54 408 l 54 330 l 626 330 "},"x":{"x_min":-25.8125,"x_max":591.859375,"ha":608,"o":"m 206 34 b 200 45 206 40 205 45 l 171 45 b 156 76 155 45 149 61 b 275 250 166 98 256 222 l 373 90 b 365 45 388 66 379 45 l 344 45 b 333 31 335 45 333 41 l 333 8 b 344 -4 333 1 335 -4 b 477 0 359 -4 400 0 b 582 -4 544 0 570 -4 b 591 6 590 -4 591 1 l 591 34 b 585 45 591 43 590 45 l 563 45 b 503 75 538 45 519 55 b 335 315 443 148 389 233 b 502 516 363 351 479 497 b 555 533 515 527 529 533 l 576 533 b 587 544 586 533 587 536 l 587 569 b 575 583 587 577 586 583 b 497 579 565 583 552 579 b 381 583 420 579 397 583 b 374 572 375 583 374 580 l 374 543 b 382 533 374 537 375 533 l 398 533 b 413 488 421 533 425 505 l 310 350 l 226 486 b 231 533 209 511 209 533 l 243 533 b 251 544 249 533 251 536 l 251 570 b 243 583 251 579 250 583 b 117 579 231 583 181 579 b 5 583 53 579 16 583 b -5 570 -4 583 -5 580 l -5 543 b 4 533 -5 538 -4 533 l 42 533 b 91 513 61 533 80 527 b 251 284 122 479 200 366 b 76 62 228 258 102 86 b 20 45 65 51 50 45 l -14 45 b -25 33 -24 45 -25 40 l -25 8 b -13 -4 -25 1 -24 -4 b 91 0 0 -4 23 0 b 197 -4 149 0 185 -4 b 206 6 205 -4 206 1 l 206 34 "},"h":{"x_min":35.390625,"x_max":709.140625,"ha":749,"o":"m 133 337 b 129 68 133 247 133 94 b 84 45 126 51 106 45 l 55 45 b 35 34 40 45 35 44 l 35 9 b 44 -4 35 0 39 -4 b 176 0 57 -4 108 0 b 306 -4 239 0 295 -4 b 317 11 314 -4 317 1 l 317 34 b 302 45 317 43 311 45 l 261 45 b 231 102 235 45 231 58 l 231 405 b 258 473 231 430 246 458 b 385 531 296 518 345 531 b 475 493 419 531 447 519 b 519 322 514 455 519 400 l 519 209 b 519 72 519 165 521 91 b 468 45 518 48 491 45 l 436 45 b 427 34 428 45 427 41 l 427 11 b 439 -4 427 0 430 -4 b 567 0 451 -4 500 0 b 698 -4 645 0 688 -4 b 709 12 706 -4 709 1 l 709 33 b 694 45 709 43 705 45 l 671 45 b 620 66 642 45 620 50 b 617 256 620 93 617 179 l 617 336 b 559 540 617 411 620 481 b 424 595 521 577 481 595 b 238 505 364 595 285 563 l 231 505 l 231 594 b 235 969 231 663 232 945 b 224 1004 238 993 232 1004 b 193 993 213 1004 204 998 l 51 916 b 35 902 39 909 35 908 l 35 890 b 44 881 35 886 36 884 l 68 873 b 133 756 117 856 133 841 l 133 337 "},".":{"x_min":92.5625,"x_max":253.171875,"ha":353,"o":"m 176 -16 b 253 59 219 -16 253 13 b 176 143 253 111 216 143 b 92 65 108 143 92 88 b 176 -16 92 0 147 -16 "},";":{"x_min":72.140625,"x_max":274.9375,"ha":353,"o":"m 156 159 b 80 94 107 159 80 129 b 157 2 80 25 144 8 b 181 -38 168 -1 181 -20 b 84 -213 181 -115 117 -183 b 72 -234 73 -223 72 -226 b 88 -247 72 -243 77 -247 b 115 -234 98 -247 107 -238 b 274 26 142 -218 274 -119 b 156 159 274 113 204 159 m 156 436 b 232 512 198 436 232 466 b 156 595 232 563 196 595 b 72 518 89 595 72 541 b 156 436 72 452 126 436 "},"f":{"x_min":34.03125,"x_max":583.921875,"ha":431,"o":"m 145 355 l 145 94 b 112 45 144 62 138 45 l 47 45 b 34 36 36 45 34 43 l 34 5 b 44 -4 34 -1 36 -4 b 200 0 55 -4 125 0 b 363 -4 304 0 355 -4 b 372 12 370 -4 372 1 l 372 34 b 357 45 372 43 370 45 l 280 45 b 245 81 251 45 247 58 b 243 388 243 97 243 225 l 243 512 l 393 512 b 411 519 404 512 409 513 l 417 565 b 408 579 419 570 417 579 l 243 579 l 243 606 b 291 890 243 704 240 825 b 393 938 321 929 357 938 b 455 906 419 938 438 929 b 488 875 461 900 476 881 b 526 866 499 869 513 866 b 583 926 548 866 583 893 b 460 1004 583 979 524 1004 b 236 894 383 1004 308 975 b 145 605 183 833 145 743 l 145 579 l 66 579 b 50 569 55 579 51 577 l 44 527 b 51 512 42 515 44 512 l 145 512 l 145 355 "},"“":{"x_min":42.1875,"x_max":447.8125,"ha":500,"o":"m 148 638 b 216 698 191 638 216 666 b 147 779 216 759 159 773 b 126 818 137 783 126 800 b 212 975 126 886 183 947 b 223 993 223 983 223 986 b 209 1004 223 1000 219 1004 b 185 993 200 1004 191 997 b 42 758 160 977 42 890 b 148 638 42 680 106 638 m 371 638 b 441 698 415 638 441 666 b 370 779 441 759 382 773 b 349 818 360 783 349 800 b 436 975 349 886 406 947 b 447 993 447 983 447 986 b 434 1004 447 1000 443 1004 b 408 993 423 1004 415 997 b 265 758 383 977 265 890 b 371 638 265 680 330 638 "},"A":{"x_min":-0.890625,"x_max":1011.90625,"ha":1032,"o":"m 633 386 b 719 102 652 330 708 152 b 678 50 728 63 716 50 l 644 50 b 632 40 636 50 632 48 l 632 8 b 643 -4 632 0 636 -4 b 834 0 674 -4 721 0 b 998 -4 945 0 973 -4 b 1011 5 1007 -4 1011 -1 l 1011 40 b 1001 50 1011 45 1009 50 l 956 50 b 863 112 922 50 886 66 b 724 519 844 152 755 411 b 566 1006 698 608 592 919 b 551 1030 562 1022 559 1030 b 534 1018 544 1030 540 1025 b 421 948 519 998 459 956 b 408 936 411 945 408 940 b 418 918 408 930 414 923 b 417 870 427 902 421 884 b 284 506 404 833 294 534 b 136 113 245 393 146 136 b 57 50 117 69 98 50 l 10 50 b 0 40 4 50 0 47 l 0 6 b 8 -4 0 -1 1 -4 b 157 0 27 -4 57 0 b 312 -4 237 0 293 -4 b 323 8 318 -4 323 -1 l 323 40 b 309 50 323 47 318 50 l 245 50 b 199 80 215 50 199 61 b 203 111 199 87 201 101 b 298 386 210 140 284 351 l 633 386 m 316 436 b 461 844 325 470 455 826 b 476 865 466 855 471 865 b 487 845 480 865 483 855 b 617 436 494 825 604 477 l 316 436 "},"6":{"x_min":59.890625,"x_max":620.671875,"ha":694,"o":"m 343 -20 b 536 62 428 -20 485 6 b 620 301 583 112 620 172 b 379 545 620 391 549 545 b 198 481 300 545 242 520 b 521 912 232 709 412 862 b 533 934 529 916 533 923 b 517 948 533 944 525 948 b 466 933 507 948 488 943 b 266 798 405 908 332 862 b 59 311 122 655 59 484 b 147 55 59 238 78 130 b 343 -20 187 5 251 -20 m 351 23 b 175 266 186 23 175 195 b 205 418 175 325 186 381 b 340 486 221 452 259 486 b 504 258 445 486 504 381 b 351 23 504 38 381 23 "},"O":{"x_min":65.328125,"x_max":1052.140625,"ha":1140,"o":"m 558 -21 b 950 174 745 -21 867 62 b 1052 478 1020 271 1052 377 b 865 894 1052 670 965 806 b 560 1003 758 985 646 1003 b 191 827 446 1003 311 976 b 65 481 87 698 65 566 b 265 69 65 278 168 128 b 558 -21 372 1 491 -21 m 568 31 b 204 526 453 31 204 160 b 340 869 204 639 249 780 b 555 951 442 967 534 951 b 918 467 706 951 918 771 b 568 31 918 344 868 31 "},"n":{"x_min":53.078125,"x_max":698.25,"ha":739,"o":"m 609 433 b 534 565 609 468 575 537 b 419 595 502 587 460 595 b 232 494 351 595 272 544 l 230 494 l 220 579 b 209 595 219 590 216 595 b 185 586 204 595 196 591 l 68 519 b 55 505 61 516 55 512 l 55 498 b 66 486 55 494 57 490 l 77 480 b 133 398 111 463 133 440 l 133 73 b 106 45 133 50 123 45 l 66 45 b 53 33 55 45 53 41 l 53 8 b 62 -4 53 0 55 -4 b 183 0 70 -4 114 0 b 302 -4 255 0 292 -4 b 311 8 308 -4 311 0 l 311 31 b 298 45 311 41 308 45 l 264 45 b 231 91 235 45 231 54 l 231 379 b 262 473 231 405 235 443 b 372 527 303 518 351 527 b 472 502 406 527 439 527 b 511 377 511 473 511 433 l 511 194 b 509 77 511 158 510 113 b 481 45 507 52 496 45 l 442 45 b 424 33 428 45 424 43 l 424 11 b 435 -4 424 0 427 -4 b 558 0 445 -4 488 0 b 687 -4 635 0 677 -4 b 698 11 695 -4 698 1 l 698 33 b 683 45 698 41 695 45 l 639 45 b 609 75 622 45 609 52 l 609 433 "},"‘":{"x_min":39.46875,"x_max":220.5,"ha":264,"o":"m 145 638 b 213 698 189 638 213 666 b 144 779 213 759 156 773 b 123 818 134 783 123 800 b 209 975 123 886 181 947 b 220 993 220 983 220 986 b 206 1004 220 1000 216 1004 b 182 993 197 1004 189 997 b 39 758 157 977 39 890 b 145 638 39 680 103 638 "},"3":{"x_min":47.640625,"x_max":592.078125,"ha":694,"o":"m 251 -20 b 592 284 435 -20 592 105 b 393 527 592 406 485 504 b 545 766 464 572 545 647 b 344 948 545 837 492 948 b 88 723 190 948 107 819 b 89 702 85 711 87 704 l 114 697 b 127 711 119 695 123 700 b 308 862 156 790 208 862 b 447 706 394 862 447 795 b 270 509 447 600 357 526 b 254 490 258 506 254 504 b 279 469 254 470 254 475 b 475 220 389 443 475 361 b 274 30 475 123 400 30 b 148 87 179 30 155 72 b 92 148 145 94 137 148 b 47 88 69 148 47 125 b 251 -20 47 48 91 -20 "},"9":{"x_min":61.25,"x_max":619.3125,"ha":694,"o":"m 334 948 b 161 876 277 948 215 923 b 61 662 110 830 61 715 b 313 384 61 530 125 384 b 479 452 393 384 442 418 l 480 450 b 151 18 450 218 269 66 b 138 -1 144 15 138 8 b 159 -20 138 -15 148 -20 b 201 -11 168 -20 187 -15 b 397 105 276 13 329 44 b 619 627 558 250 619 441 b 545 851 619 670 607 780 b 334 948 484 919 431 948 m 338 904 b 496 661 462 904 496 783 b 476 523 496 604 492 558 b 338 444 458 487 417 444 b 170 669 246 444 170 538 b 338 904 170 825 258 904 "},"l":{"x_min":16.328125,"x_max":341.640625,"ha":356,"o":"m 228 537 b 234 979 228 613 232 902 b 223 1004 235 997 232 1004 b 194 993 215 1004 206 1001 b 35 912 144 959 83 934 b 23 902 27 909 23 906 l 23 891 b 31 884 23 888 24 887 l 58 875 b 126 791 102 861 123 838 b 130 530 129 755 130 629 l 130 443 b 129 80 130 362 130 123 b 99 45 127 55 114 45 l 34 45 b 16 33 19 45 16 43 l 16 9 b 25 -4 16 1 19 -4 b 179 0 38 -4 92 0 b 333 -4 264 0 323 -4 b 341 9 338 -4 341 1 l 341 33 b 326 45 341 41 338 45 l 265 45 b 230 88 236 45 231 65 b 228 413 228 131 228 341 l 228 537 "},"⅛":{"x_min":25.375,"x_max":960.953125,"ha":1031,"o":"m 779 -12 b 960 134 894 -12 960 69 b 835 290 960 215 901 258 b 959 445 924 337 959 383 b 801 569 959 516 891 569 b 605 411 673 569 605 486 b 728 262 605 338 666 294 b 611 106 658 226 611 179 b 779 -12 611 55 651 -12 m 785 27 b 683 120 735 27 683 63 b 764 241 683 169 707 216 b 882 118 833 209 882 177 b 785 27 882 75 849 27 m 788 526 b 884 433 847 526 884 484 b 797 309 884 376 843 331 b 691 429 725 351 691 373 b 788 526 691 479 724 526 m 793 908 b 798 920 796 913 798 918 b 775 940 798 925 797 927 b 754 948 762 947 758 948 b 743 937 748 948 745 943 l 190 23 b 183 6 186 16 183 11 b 202 -9 183 1 186 0 b 227 -20 219 -19 223 -20 b 240 -2 231 -20 234 -15 l 793 908 m 251 691 b 254 936 251 798 254 923 b 243 948 254 943 251 948 b 219 938 236 948 231 945 l 31 834 b 25 826 25 831 24 829 l 40 798 b 54 800 42 795 46 795 l 107 822 b 142 830 122 827 134 830 b 163 797 157 830 161 816 b 166 680 164 765 166 700 l 166 638 b 164 469 166 591 164 480 b 102 423 163 430 160 423 l 62 423 b 50 418 55 423 50 422 l 50 381 b 59 375 50 377 53 375 b 202 379 63 375 167 379 b 344 375 242 379 338 375 b 353 381 349 375 353 376 l 353 415 b 345 423 353 420 351 423 l 314 423 b 251 472 257 423 251 430 l 251 691 "},"4":{"x_min":25.859375,"x_max":656.0625,"ha":694,"o":"m 510 0 b 529 19 526 0 529 4 l 529 259 l 634 259 b 656 273 651 259 656 265 l 656 340 b 639 351 656 348 649 351 l 529 351 l 529 906 b 511 948 529 938 524 948 b 481 926 500 948 490 937 l 39 304 b 25 276 29 290 25 284 b 46 259 25 265 34 259 l 426 259 l 426 15 b 442 0 426 2 430 0 l 510 0 m 427 344 l 160 344 b 151 381 136 344 134 358 l 401 734 b 427 726 413 752 427 748 l 427 344 "},"p":{"x_min":19.0625,"x_max":649.25,"ha":714,"o":"m 121 -56 b 117 -297 121 -192 121 -267 b 88 -332 114 -318 111 -332 l 35 -332 b 19 -345 21 -332 19 -338 l 19 -370 b 31 -382 19 -378 21 -382 b 168 -378 42 -382 89 -378 b 308 -382 255 -378 302 -382 b 321 -370 318 -382 321 -378 l 321 -346 b 308 -332 321 -338 319 -332 l 249 -332 b 219 -286 228 -332 219 -325 l 219 6 b 355 -17 261 -11 318 -17 b 649 310 525 -17 649 128 b 575 527 649 417 627 474 b 420 595 536 564 490 595 b 221 502 329 595 258 550 l 217 502 l 212 568 b 202 596 212 589 209 596 b 171 585 193 596 182 591 l 40 518 b 31 509 34 516 31 513 l 31 498 b 40 485 31 493 31 489 l 72 467 b 121 392 111 445 121 425 l 121 -56 m 219 442 b 364 531 251 498 307 531 b 541 259 455 531 541 453 b 383 27 541 86 461 27 b 247 64 328 27 285 36 b 219 138 221 82 219 107 l 219 442 "},"⅔":{"x_min":-2.71875,"x_max":994.96875,"ha":1031,"o":"m 845 908 b 850 920 847 914 850 918 b 827 940 850 925 849 927 b 805 948 813 947 809 948 b 794 937 800 948 797 943 l 242 23 b 235 6 238 16 235 10 b 254 -10 235 1 238 0 b 279 -21 270 -19 274 -21 b 292 -3 283 -21 285 -15 l 845 908 m 630 52 b 773 -12 630 28 658 -12 b 994 170 896 -12 994 59 b 868 313 994 244 925 301 b 965 459 913 340 965 387 b 830 569 965 501 931 569 b 658 434 711 569 669 491 b 664 420 657 427 658 421 l 681 416 b 695 426 687 415 692 417 b 803 507 713 476 751 507 b 883 423 850 507 883 463 b 782 312 883 359 828 316 b 767 296 773 310 769 305 b 786 277 767 285 771 280 b 901 140 852 266 901 210 b 781 30 901 90 854 30 b 707 58 729 30 713 51 b 665 103 700 69 696 103 b 630 52 645 103 630 84 m 276 378 b 319 367 304 378 314 377 b 338 359 325 359 329 359 b 356 367 347 359 353 360 l 412 491 b 401 509 416 501 413 505 b 378 505 390 514 385 515 b 281 451 357 474 336 451 l 130 451 l 130 454 b 274 590 152 470 212 522 b 382 802 352 673 382 736 b 230 948 382 902 306 948 b 43 823 111 948 57 859 b 46 814 42 818 42 815 l 63 804 b 78 811 69 801 74 804 b 200 877 98 836 133 877 b 288 775 235 877 288 850 b 189 574 288 707 250 643 b 2 395 117 494 40 430 b -2 384 -1 392 -2 388 b 6 376 -2 377 0 376 b 84 378 14 376 55 378 l 276 378 "},"‡":{"x_min":35.390625,"x_max":646.53125,"ha":694,"o":"m 343 1004 b 276 929 308 1004 276 970 b 313 637 276 881 313 736 b 99 669 231 637 123 669 b 35 612 57 669 35 643 b 93 556 35 591 47 556 b 313 598 123 556 234 598 b 274 418 313 512 295 468 b 313 218 289 388 313 305 b 92 259 231 218 115 259 b 35 204 44 259 35 222 b 92 147 35 180 55 147 b 313 179 115 147 231 179 b 272 -112 311 80 272 -63 b 336 -187 272 -154 294 -187 b 405 -112 372 -187 405 -154 b 368 179 405 -63 368 80 b 582 147 450 179 558 147 b 646 204 624 147 646 175 b 588 259 646 225 634 259 b 368 218 558 259 447 218 b 406 418 368 305 389 386 b 368 598 382 470 368 512 b 594 556 450 598 566 556 b 646 612 637 556 646 594 b 589 669 646 637 632 669 b 368 637 566 669 450 637 b 409 929 368 736 409 881 b 343 1004 409 970 387 1004 "}}}
